<svg width="71" height="70" viewBox="0 0 71 70" fill="none" xmlns="http://www.w3.org/2000/svg">
<path d="M19.229 1.31159C16.784 2.5051 14.4908 3.77706 12.2313 5.20665C11.7423 5.52143 11.2533 5.78369 11.1353 5.78369C11.0172 5.79681 10.0561 5.7968 8.99379 5.77057C6.80173 5.74434 6.02608 5.90169 5.52022 6.49189C5.16612 6.91159 4.79516 8.32803 4.7783 9.31169C4.76143 10.2822 4.37361 10.8987 2.99092 12.066C1.271 13.5218 0.596523 14.1907 0.309869 14.7284C-0.0948185 15.5022 -0.111676 24.3421 0.309873 28.1325C0.461631 29.6408 0.663975 31.5032 0.731423 32.2639C0.815733 33.0246 1.03494 34.8215 1.23728 36.2642C1.42276 37.7069 1.77687 40.4219 2.0298 42.2974C2.83917 48.6191 3.0921 49.4585 4.35675 50.0487C5.06495 50.3897 7.20873 50.3635 9.97409 49.9831C11.087 49.8389 11.1943 49.8242 11.2954 49.8242C11.4978 49.8242 11.9263 51.1919 12.2313 52.2359C12.4842 53.1015 12.754 53.9802 12.8215 54.2032C12.9058 54.4131 13.1587 55.3705 13.3948 56.3279C14.2041 59.5019 13.9512 61.7315 12.6023 63.7382C11.8941 64.8006 11.7592 66.2302 12.3156 67.227C12.7372 67.9877 13.8332 68.8402 14.7775 69.155C15.6711 69.4435 17.5091 69.4173 18.4702 69.0894C19.5325 68.7353 20.9827 67.909 21.6066 67.2925C23.5288 65.4301 25.5523 61.3118 27.7612 54.8065C28.1659 53.6392 28.3176 53.613 28.8909 54.5573C29.5317 55.6197 32.1453 61.7578 32.2971 62.5316C32.3645 62.9382 32.2802 63.5415 32.0441 64.4334C31.6057 65.981 31.6563 67.1614 32.2127 68.1319C32.9209 69.3779 33.9495 69.8894 35.9392 69.9812C37.069 70.0337 37.3556 69.9944 38.165 69.7058C40.6943 68.814 43.7126 64.2891 45.8035 58.269C46.0227 57.6133 46.4274 56.4591 46.6972 55.6853C47.203 54.2294 47.7258 53.3769 48.4508 52.8392C48.8724 52.5506 48.9061 52.5375 50.0527 52.6949C51.857 52.9441 54.8752 52.7998 56.7469 52.367C60.1025 51.5932 62.6655 50.3997 65.2791 48.3668C68.584 45.7961 69.9836 43.8681 69.9836 41.9139C69.9667 39.5662 67.1508 37.8219 64.0819 38.2678C62.8341 38.4514 61.4851 39.0285 59.2762 40.3007C58.2645 40.8909 57.0167 41.586 56.5277 41.8483C55.5329 42.373 53.8635 42.9107 53.5094 42.8058C53.3408 42.7533 52.0827 42.1981 52.0827 41.1619C51.4965 38.687 50.6395 36.2642 49.4869 34.193C47.0586 29.8293 45.8035 27.0177 41.2845 23.1355L39.8849 22.283L39.7838 21.1419C39.6995 20.2501 39.5646 16.9843 39.514 14.3481C39.514 14.2038 39.3622 13.9546 39.1767 13.7972C38.8901 13.5611 38.6372 13.5087 37.6929 13.5087C37.069 13.5087 36.462 13.4562 36.3608 13.4037C36.209 13.325 36.1247 12.5643 36.0404 10.7413C35.9898 9.35103 35.8718 7.79031 35.7706 7.30503C35.6189 6.5181 35.5177 6.33453 34.8938 5.83614C33.7135 4.8787 32.4151 4.87871 29.9027 5.84926C28.2502 6.49192 26.9012 7.26567 25.6534 8.27557C24.8272 8.95758 24.7429 8.9838 24.3382 8.78707C24.1359 8.68215 24.0515 7.97405 23.9167 4.6427L23.748 0.629576L23.2759 0.314799C23.023 0.144297 22.6014 2.78734e-05 22.3485 2.78734e-05C22.0618 2.78734e-05 20.8646 0.511538 19.229 1.31159ZM20.8815 3.56728C21.067 4.06567 21.185 7.50175 21.0164 8.00014L20.8646 8.45918L19.3302 8.57722C18.4871 8.64279 17.6103 8.65591 17.3911 8.61657C17.1719 8.5641 16.3625 8.17066 15.5868 7.73784C14.4571 7.08206 14.2379 6.89845 14.3896 6.75418C14.4908 6.64926 15.6206 5.99359 16.8852 5.28534C18.1667 4.59022 19.4651 3.84269 19.7855 3.64596C20.4937 3.20003 20.7129 3.18693 20.8815 3.56728ZM4.54223 14.0202C4.40733 14.1907 3.9352 14.2169 3.9352 14.0595C3.9352 14.0071 4.01951 13.889 4.13754 13.7972C4.37361 13.6136 4.71085 13.7972 4.54223 14.0202ZM37.3219 16.4553C37.3051 16.639 37.2882 18.7811 37.2713 21.6141L37.2376 26.7816L36.8498 27.0177C36.1247 27.4899 35.1299 27.4768 32.1116 27.0046C28.9247 26.5062 27.9298 26.4669 26.8338 26.8079C25.4005 27.2276 24.8946 27.8965 25.0127 29.1818C25.1307 30.5851 27.3734 32.3164 31.2516 33.9952C31.6732 34.1788 32.7355 34.6772 33.6123 35.0969C34.4891 35.5297 35.5683 36.0412 35.9898 36.2248C36.4114 36.4216 36.8498 36.6577 36.951 36.7626C37.4568 37.2216 37.7772 34.7953 37.7266 40.1333C37.7098 42.8614 37.6423 43.7926 37.3388 45.1697C36.9678 46.9141 36.67 46.8119 36.3159 46.8381C35.3547 46.9299 34.1913 46.9299 30.4648 46.825C28.1041 46.7463 25.1364 46.602 23.8886 46.484C22.2024 46.3266 20.8028 46.2873 18.4927 46.3397C15.0192 46.4184 12.9283 46.6807 9.53903 47.4152C8.40928 47.6644 7.12777 47.9136 6.67249 47.9529C5.91371 48.0316 5.86312 48.0185 5.61019 47.6513C4.88513 46.5365 4.57596 44.0155 3.34503 31.477C3.29444 30.9393 3.14269 29.3654 3.00779 28.0014C2.63683 24.3946 2.41761 16.5734 2.73799 16.3635C2.92347 16.2455 3.22698 16.2586 3.98577 16.416C4.84573 16.5996 5.99235 16.6258 11.3207 16.6127C17.4922 16.5865 27.4745 16.4029 33.4099 16.193C37.4737 16.0619 37.3894 16.0619 37.3219 16.4553Z" fill="black"/>
<path d="M18.7337 24.3273C18.5819 24.4462 18.329 24.7859 18.1603 25.1086C17.9243 25.6011 17.9074 25.7879 18.0592 26.3484C18.447 27.6052 19.543 27.843 20.2344 26.8239C21.1786 25.4143 19.9646 23.3763 18.7337 24.3273Z" fill="black"/>
<path d="M8.78592 24.6668C8.01027 25.2612 7.87537 26.7558 8.54985 27.4181C9.05571 27.9446 9.52785 27.9616 9.96626 27.4691C10.6407 26.7558 10.6239 25.431 9.9494 24.7857C9.52785 24.395 9.17375 24.3611 8.78592 24.6668Z" fill="black"/>
<path d="M13.7759 32.2925C12.7642 32.6492 12.545 33.2096 13.2194 33.6852C13.8096 34.1098 15.5801 34.0588 15.9679 33.6172C16.4063 33.1247 16.1028 32.5473 15.2429 32.2925C14.4672 32.0547 14.4504 32.0547 13.7759 32.2925Z" fill="black"/>
<mask id="path-5-outside-1_150_1450" maskUnits="userSpaceOnUse" x="45.0527" y="0.180664" width="26" height="26" fill="black">
<rect fill="white" x="45.0527" y="0.180664" width="26" height="26"/>
<path d="M46.8594 3.68053C47.0662 3.70137 47.3092 3.71699 47.5884 3.72741C47.8677 3.72741 48.1572 3.72741 48.4571 3.72741C48.7467 3.72741 49.0311 3.72741 49.3103 3.72741C49.5895 3.71699 49.8377 3.71178 50.0549 3.71178C50.21 3.73261 50.3134 3.80553 50.3651 3.93052C50.4272 4.0451 50.4582 4.17009 50.4582 4.3055C50.4582 4.49299 50.3962 4.63361 50.2721 4.72735C50.148 4.81068 49.9928 4.86797 49.8067 4.89922C49.6309 4.92005 49.4344 4.92526 49.2172 4.91484C49.0104 4.90443 48.8139 4.89922 48.6278 4.89922C48.3899 4.89922 48.1572 4.89922 47.9297 4.89922C47.7022 4.89922 47.485 4.8888 47.2782 4.86797C47.2782 5.2742 47.2834 5.69084 47.2937 6.11791C47.3041 6.54497 47.3351 6.90953 47.3868 7.2116C47.6557 7.26368 47.9349 7.31055 48.2244 7.35222C48.5244 7.39388 48.8398 7.41471 49.1707 7.41471C49.2845 7.41471 49.4034 7.4095 49.5275 7.39909C49.6516 7.37826 49.7705 7.36784 49.8843 7.36784C50.029 7.36784 50.1428 7.43034 50.2255 7.55533C50.3186 7.68032 50.3651 7.81573 50.3651 7.96156C50.3651 8.13863 50.3134 8.26883 50.21 8.35216C50.1169 8.42508 49.998 8.47716 49.8532 8.5084C49.7188 8.52924 49.574 8.53965 49.4189 8.53965C49.2638 8.52924 49.1345 8.52403 49.0311 8.52403C48.7002 8.52403 48.3899 8.5084 48.1003 8.47716C47.8108 8.44591 47.5212 8.40945 47.2317 8.36779C46.9628 8.31571 46.7611 8.25321 46.6267 8.1803C46.4922 8.09697 46.394 7.97718 46.332 7.82094C46.2699 7.65428 46.2234 7.42513 46.1923 7.13348C46.1717 6.83141 46.1406 6.4356 46.0993 5.94604C46.0889 5.68564 46.0786 5.42523 46.0682 5.16483C46.0579 4.90443 46.0527 4.65965 46.0527 4.43049C46.0527 4.35758 46.0786 4.27946 46.1303 4.19613C46.182 4.10239 46.2441 4.01906 46.3164 3.94614C46.3992 3.86281 46.4871 3.80032 46.5802 3.75865C46.6732 3.70657 46.7663 3.68053 46.8594 3.68053ZM52.5679 1.99312C52.4851 1.88896 52.4438 1.79521 52.4438 1.71189C52.4438 1.57648 52.5058 1.45669 52.6299 1.35253C52.7644 1.23795 52.9143 1.18066 53.0798 1.18066C53.2659 1.18066 53.4262 1.25358 53.5607 1.3994L54.1191 2.18061C54.2742 2.39935 54.3931 2.6285 54.4759 2.86808C54.5586 3.09723 54.6155 3.3368 54.6465 3.58679C54.6775 3.82636 54.6982 4.07114 54.7086 4.32112C54.7189 4.5607 54.7344 4.80027 54.7551 5.03984C55.1377 5.05025 55.5359 5.05546 55.9495 5.05546C56.3632 5.05546 56.7252 5.05546 57.0354 5.05546C57.1595 5.07629 57.2474 5.12837 57.2991 5.2117C57.3612 5.29503 57.3922 5.38878 57.3922 5.49294C57.3922 5.67001 57.3353 5.83667 57.2215 5.99291C57.1078 6.13874 56.963 6.21165 56.7872 6.21165C56.4563 6.21165 56.115 6.21686 55.7634 6.22728C55.4221 6.23769 55.086 6.2429 54.7551 6.2429C54.7448 6.71162 54.7137 7.16472 54.662 7.6022C54.6207 8.03968 54.5638 8.46153 54.4914 8.86776C54.4604 9.06567 54.3725 9.20629 54.2277 9.28961C54.0932 9.36253 53.9536 9.39898 53.8089 9.39898C53.6641 9.39898 53.54 9.36774 53.4366 9.30524C53.3435 9.23233 53.2969 9.12816 53.2969 8.99275C53.2969 8.95109 53.3021 8.91984 53.3125 8.89901C53.4055 8.43028 53.4728 7.93031 53.5141 7.39909C53.5555 6.85745 53.5762 6.33143 53.5762 5.82104C53.5762 5.28982 53.5555 4.80027 53.5141 4.35237C53.4831 3.90448 53.4366 3.52429 53.3745 3.21181C53.2814 3.02432 53.1625 2.83162 53.0177 2.63371C52.8833 2.42539 52.7333 2.21186 52.5679 1.99312Z"/>
<path d="M48.969 12.4491C49.1759 12.4699 49.4809 12.4855 49.8843 12.496C50.2876 12.496 50.7219 12.496 51.1873 12.496C51.632 12.496 52.056 12.496 52.4593 12.496C52.8729 12.4855 53.1884 12.4803 53.4055 12.4803C53.5503 12.5012 53.6589 12.5689 53.7313 12.6834C53.8037 12.798 53.8399 12.923 53.8399 13.0584C53.8399 13.2355 53.7933 13.3657 53.7003 13.449C53.6175 13.5324 53.4934 13.5897 53.328 13.6209C53.1625 13.6417 52.9608 13.6522 52.723 13.6522C52.4955 13.6417 52.2421 13.6365 51.9629 13.6365C51.663 13.6365 51.3683 13.6365 51.0787 13.6365C50.7995 13.6365 50.5254 13.6313 50.2566 13.6209C50.2566 13.9542 50.2617 14.2771 50.2721 14.5896C50.2824 14.9021 50.3031 15.2094 50.3341 15.5114C50.5099 15.5427 50.7271 15.5687 50.9856 15.5895C51.2442 15.6 51.5182 15.6052 51.8078 15.6052C52.1077 15.6052 52.4024 15.5895 52.692 15.5583C52.9815 15.5271 53.2504 15.5114 53.4986 15.5114C53.633 15.5114 53.7416 15.5687 53.8244 15.6833C53.9174 15.7979 53.964 15.9281 53.964 16.0739C53.964 16.1885 53.9381 16.2926 53.8864 16.3864C53.8347 16.4801 53.7571 16.5426 53.6537 16.5739C53.3952 16.6051 53.116 16.6312 52.8161 16.652C52.5265 16.6728 52.2369 16.6832 51.9474 16.6832C51.9784 17.027 52.0043 17.3759 52.0249 17.73C52.056 18.0842 52.0715 18.4592 52.0715 18.855C52.8161 18.8237 53.54 18.7665 54.2432 18.6831C54.9464 18.5894 55.5669 18.4696 56.1047 18.3238H56.1512C56.2546 18.3238 56.3477 18.3915 56.4304 18.5269C56.5132 18.6519 56.5545 18.7821 56.5545 18.9175C56.5545 19.0321 56.5287 19.131 56.477 19.2143C56.4252 19.2977 56.3322 19.355 56.1977 19.3862C55.8048 19.5008 55.3601 19.5997 54.8637 19.6831C54.3776 19.756 53.8657 19.8237 53.328 19.8862C52.8006 19.9383 52.2525 19.9799 51.6837 20.0112C51.1252 20.032 50.5771 20.0424 50.0394 20.0424C49.3879 20.0424 48.7674 20.0268 48.1779 19.9956C47.5988 19.9539 47.0869 19.8966 46.6422 19.8237C46.5078 19.8029 46.4095 19.7508 46.3475 19.6674C46.2854 19.5737 46.2544 19.4695 46.2544 19.355C46.2544 19.1987 46.2906 19.0581 46.363 18.9331C46.4457 18.7977 46.5698 18.73 46.7353 18.73C47.1593 18.7925 47.6246 18.8446 48.1314 18.8862C48.6381 18.9175 49.1707 18.9331 49.7291 18.9331C49.9153 18.9331 50.1014 18.9331 50.2876 18.9331C50.4841 18.9227 50.6857 18.9123 50.8926 18.9019C50.8926 18.5581 50.877 18.1832 50.846 17.7769C50.8253 17.3707 50.815 17.0009 50.815 16.6676C50.3393 16.6676 49.9566 16.6051 49.6671 16.4801C49.3775 16.3551 49.2172 16.0843 49.1862 15.6677C49.1552 15.3031 49.1293 14.9594 49.1086 14.6365C49.0983 14.3032 49.0931 13.9542 49.0931 13.5897H49.0001C48.7622 13.5897 48.5967 13.5272 48.5037 13.4022C48.4209 13.2772 48.3796 13.1418 48.3796 12.9959C48.4003 12.8605 48.4571 12.7355 48.5502 12.621C48.6536 12.5064 48.7932 12.4491 48.969 12.4491ZM49.5275 21.9798C49.8998 21.9173 50.3341 21.8601 50.8305 21.808C51.3269 21.7559 51.8026 21.7298 52.2576 21.7298C52.5679 21.7298 52.8161 21.7819 53.0022 21.8861C53.1987 21.9798 53.3487 22.11 53.4521 22.2767C53.5658 22.4329 53.6382 22.6152 53.6692 22.8235C53.7106 23.0319 53.7313 23.2454 53.7313 23.4641C53.7313 23.8183 53.7106 24.162 53.6692 24.4953C53.6279 24.8391 53.5813 25.1463 53.5296 25.4171C53.5089 25.5421 53.4521 25.6307 53.359 25.6828C53.2659 25.7348 53.1625 25.7609 53.0488 25.7609C52.8729 25.7609 52.7178 25.7088 52.5834 25.6046C52.4593 25.5109 52.3972 25.3911 52.3972 25.2453C52.3972 25.1932 52.4024 25.1568 52.4128 25.1359C52.4645 24.8859 52.5007 24.6203 52.5213 24.3391C52.5524 24.0578 52.5679 23.8079 52.5679 23.5891C52.5679 23.2871 52.511 23.0944 52.3972 23.011C52.2938 22.9277 52.149 22.886 51.9629 22.886C51.7767 22.886 51.5751 22.8965 51.3579 22.9173C51.1511 22.9381 50.9391 22.9642 50.7219 22.9954C50.5151 23.0267 50.3186 23.0527 50.1325 23.0735C49.9463 23.0944 49.786 23.1048 49.6516 23.1048C49.5275 23.1048 49.4241 23.0371 49.3413 22.9017C49.2689 22.7662 49.2327 22.6152 49.2327 22.4486C49.2327 22.334 49.2534 22.235 49.2948 22.1517C49.3465 22.058 49.4241 22.0007 49.5275 21.9798Z"/>
<path d="M59.4679 19.9123C59.6747 19.9332 59.9178 19.9488 60.197 19.9592C60.4762 19.9592 60.7658 19.9592 61.0657 19.9592C61.3552 19.9592 61.6396 19.9592 61.9188 19.9592C62.1981 19.9488 62.4463 19.9436 62.6634 19.9436C62.8185 19.9644 62.922 20.0373 62.9737 20.1623C63.0357 20.2769 63.0667 20.4019 63.0667 20.5373C63.0667 20.7248 63.0047 20.8654 62.8806 20.9591C62.7565 21.0425 62.6014 21.0998 62.4152 21.131C62.2394 21.1518 62.0429 21.157 61.8258 21.1466C61.6189 21.1362 61.4224 21.131 61.2363 21.131C60.9984 21.131 60.7658 21.131 60.5382 21.131C60.3107 21.131 60.0936 21.1206 59.8867 21.0998C59.8867 21.506 59.8919 21.9226 59.9022 22.3497C59.9126 22.7768 59.9436 23.1413 59.9953 23.4434C60.2642 23.4955 60.5434 23.5423 60.833 23.584C61.1329 23.6257 61.4483 23.6465 61.7792 23.6465C61.893 23.6465 62.0119 23.6413 62.136 23.6309C62.2601 23.61 62.379 23.5996 62.4928 23.5996C62.6376 23.5996 62.7513 23.6621 62.8341 23.7871C62.9271 23.9121 62.9737 24.0475 62.9737 24.1933C62.9737 24.3704 62.922 24.5006 62.8185 24.584C62.7255 24.6569 62.6065 24.7089 62.4618 24.7402C62.3273 24.761 62.1825 24.7714 62.0274 24.7714C61.8723 24.761 61.743 24.7558 61.6396 24.7558C61.3087 24.7558 60.9984 24.7402 60.7089 24.7089C60.4193 24.6777 60.1298 24.6412 59.8402 24.5996C59.5713 24.5475 59.3697 24.485 59.2352 24.4121C59.1008 24.3288 59.0025 24.209 58.9405 24.0527C58.8784 23.8861 58.8319 23.6569 58.8009 23.3653C58.7802 23.0632 58.7492 22.6674 58.7078 22.1778C58.6975 21.9174 58.6871 21.657 58.6768 21.3966C58.6664 21.1362 58.6613 20.8914 58.6613 20.6623C58.6613 20.5894 58.6871 20.5112 58.7388 20.4279C58.7905 20.3342 58.8526 20.2508 58.925 20.1779C59.0077 20.0946 59.0956 20.0321 59.1887 19.9904C59.2818 19.9384 59.3748 19.9123 59.4679 19.9123ZM65.1764 18.2249C65.0937 18.1207 65.0523 18.027 65.0523 17.9437C65.0523 17.8083 65.1144 17.6885 65.2385 17.5843C65.3729 17.4697 65.5228 17.4125 65.6883 17.4125C65.8745 17.4125 66.0347 17.4854 66.1692 17.6312L66.7276 18.4124C66.8827 18.6311 67.0017 18.8603 67.0844 19.0999C67.1671 19.329 67.224 19.5686 67.255 19.8186C67.2861 20.0581 67.3068 20.3029 67.3171 20.5529C67.3274 20.7925 67.3429 21.0321 67.3636 21.2716C67.7463 21.282 68.1444 21.2873 68.5581 21.2873C68.9717 21.2873 69.3337 21.2873 69.6439 21.2873C69.768 21.3081 69.8559 21.3602 69.9076 21.4435C69.9697 21.5268 70.0007 21.6206 70.0007 21.7247C70.0007 21.9018 69.9438 22.0685 69.8301 22.2247C69.7163 22.3705 69.5715 22.4434 69.3957 22.4434C69.0648 22.4434 68.7235 22.4486 68.3719 22.4591C68.0307 22.4695 67.6946 22.4747 67.3636 22.4747C67.3533 22.9434 67.3223 23.3965 67.2706 23.834C67.2292 24.2715 67.1723 24.6933 67.0999 25.0995C67.0689 25.2975 66.981 25.4381 66.8362 25.5214C66.7018 25.5943 66.5622 25.6308 66.4174 25.6308C66.2726 25.6308 66.1485 25.5995 66.0451 25.537C65.952 25.4641 65.9055 25.3599 65.9055 25.2245C65.9055 25.1829 65.9107 25.1516 65.921 25.1308C66.0141 24.6621 66.0813 24.1621 66.1227 23.6309C66.164 23.0892 66.1847 22.5632 66.1847 22.0528C66.1847 21.5216 66.164 21.0321 66.1227 20.5842C66.0916 20.1363 66.0451 19.7561 65.983 19.4436C65.89 19.2561 65.771 19.0634 65.6263 18.8655C65.4918 18.6572 65.3419 18.4436 65.1764 18.2249Z"/>
<path d="M61.5776 1.72367C61.7844 1.7445 62.0895 1.76013 62.4928 1.77054C62.8961 1.77054 63.3305 1.77054 63.7958 1.77054C64.2405 1.77054 64.6645 1.77054 65.0679 1.77054C65.4815 1.76013 65.7969 1.75492 66.0141 1.75492C66.1589 1.77575 66.2675 1.84345 66.3399 1.95803C66.4122 2.07261 66.4484 2.1976 66.4484 2.33301C66.4484 2.51009 66.4019 2.64029 66.3088 2.72362C66.2261 2.80694 66.102 2.86423 65.9365 2.89548C65.7711 2.91631 65.5694 2.92673 65.3316 2.92673C65.104 2.91631 64.8507 2.91111 64.5715 2.91111C64.2716 2.91111 63.9768 2.91111 63.6873 2.91111C63.408 2.91111 63.134 2.9059 62.8651 2.89548C62.8651 3.2288 62.8703 3.5517 62.8806 3.86418C62.891 4.17666 62.9117 4.48394 62.9427 4.78601C63.1185 4.81726 63.3357 4.8433 63.5942 4.86413C63.8527 4.87454 64.1268 4.87975 64.4163 4.87975C64.7162 4.87975 65.011 4.86413 65.3005 4.83288C65.5901 4.80163 65.859 4.78601 66.1072 4.78601C66.2416 4.78601 66.3502 4.8433 66.4329 4.95787C66.526 5.07245 66.5725 5.20265 66.5725 5.34848C66.5725 5.46306 66.5467 5.56722 66.495 5.66096C66.4433 5.75471 66.3657 5.81721 66.2623 5.84845C66.0038 5.8797 65.7245 5.90574 65.4246 5.92657C65.1351 5.94741 64.8455 5.95782 64.556 5.95782C64.587 6.30156 64.6128 6.65049 64.6335 7.00464C64.6645 7.35879 64.68 7.73377 64.68 8.12958C65.4246 8.09833 66.1485 8.04105 66.8518 7.95772C67.555 7.86397 68.1755 7.74419 68.7132 7.59836H68.7598C68.8632 7.59836 68.9563 7.66607 69.039 7.80147C69.1217 7.92647 69.1631 8.05667 69.1631 8.19208C69.1631 8.30666 69.1372 8.40561 69.0855 8.48894C69.0338 8.57227 68.9407 8.62956 68.8063 8.6608C68.4133 8.77538 67.9686 8.87434 67.4722 8.95766C66.9862 9.03058 66.4743 9.09828 65.9365 9.16078C65.4091 9.21286 64.861 9.25452 64.2922 9.28577C63.7338 9.30661 63.1857 9.31702 62.6479 9.31702C61.9964 9.31702 61.3759 9.3014 60.7865 9.27015C60.2074 9.22848 59.6954 9.17119 59.2508 9.09828C59.1163 9.07745 59.0181 9.02537 58.956 8.94204C58.894 8.84829 58.863 8.74413 58.863 8.62956C58.863 8.47331 58.8992 8.3327 58.9715 8.2077C59.0543 8.0723 59.1784 8.00459 59.3438 8.00459C59.7678 8.06709 60.2332 8.11917 60.7399 8.16083C61.2467 8.19208 61.7793 8.2077 62.3377 8.2077C62.5238 8.2077 62.71 8.2077 62.8961 8.2077C63.0926 8.19729 63.2943 8.18687 63.5011 8.17646C63.5011 7.83272 63.4856 7.45774 63.4546 7.05152C63.4339 6.64529 63.4236 6.27552 63.4236 5.9422C62.9478 5.9422 62.5652 5.8797 62.2756 5.75471C61.9861 5.62971 61.8258 5.35889 61.7948 4.94225C61.7637 4.57768 61.7379 4.23395 61.7172 3.91105C61.7069 3.57774 61.7017 3.2288 61.7017 2.86423H61.6086C61.3708 2.86423 61.2053 2.80174 61.1122 2.67674C61.0295 2.55175 60.9881 2.41634 60.9881 2.27052C61.0088 2.13511 61.0657 2.01011 61.1588 1.89554C61.2622 1.78096 61.4018 1.72367 61.5776 1.72367ZM62.136 11.2544C62.5083 11.1919 62.9427 11.1346 63.4391 11.0826C63.9355 11.0305 64.4112 11.0044 64.8662 11.0044C65.1764 11.0044 65.4246 11.0565 65.6108 11.1607C65.8073 11.2544 65.9572 11.3846 66.0606 11.5513C66.1744 11.7075 66.2468 11.8898 66.2778 12.0981C66.3192 12.3064 66.3399 12.52 66.3399 12.7387C66.3399 13.0929 66.3192 13.4366 66.2778 13.7699C66.2364 14.1136 66.1899 14.4209 66.1382 14.6917C66.1175 14.8167 66.0606 14.9053 65.9676 14.9573C65.8745 15.0094 65.7711 15.0355 65.6573 15.0355C65.4815 15.0355 65.3264 14.9834 65.192 14.8792C65.0679 14.7855 65.0058 14.6657 65.0058 14.5199C65.0058 14.4678 65.011 14.4313 65.0213 14.4105C65.073 14.1605 65.1092 13.8949 65.1299 13.6137C65.1609 13.3324 65.1764 13.0824 65.1764 12.8637C65.1764 12.5616 65.1196 12.3689 65.0058 12.2856C64.9024 12.2023 64.7576 12.1606 64.5715 12.1606C64.3853 12.1606 64.1837 12.171 63.9665 12.1919C63.7597 12.2127 63.5477 12.2387 63.3305 12.27C63.1237 12.3012 62.9272 12.3273 62.741 12.3481C62.5549 12.3689 62.3946 12.3794 62.2601 12.3794C62.136 12.3794 62.0326 12.3117 61.9499 12.1762C61.8775 12.0408 61.8413 11.8898 61.8413 11.7231C61.8413 11.6086 61.862 11.5096 61.9034 11.4263C61.9551 11.3325 62.0326 11.2753 62.136 11.2544Z"/>
</mask>
<path d="M46.8594 3.68053C47.0662 3.70137 47.3092 3.71699 47.5884 3.72741C47.8677 3.72741 48.1572 3.72741 48.4571 3.72741C48.7467 3.72741 49.0311 3.72741 49.3103 3.72741C49.5895 3.71699 49.8377 3.71178 50.0549 3.71178C50.21 3.73261 50.3134 3.80553 50.3651 3.93052C50.4272 4.0451 50.4582 4.17009 50.4582 4.3055C50.4582 4.49299 50.3962 4.63361 50.2721 4.72735C50.148 4.81068 49.9928 4.86797 49.8067 4.89922C49.6309 4.92005 49.4344 4.92526 49.2172 4.91484C49.0104 4.90443 48.8139 4.89922 48.6278 4.89922C48.3899 4.89922 48.1572 4.89922 47.9297 4.89922C47.7022 4.89922 47.485 4.8888 47.2782 4.86797C47.2782 5.2742 47.2834 5.69084 47.2937 6.11791C47.3041 6.54497 47.3351 6.90953 47.3868 7.2116C47.6557 7.26368 47.9349 7.31055 48.2244 7.35222C48.5244 7.39388 48.8398 7.41471 49.1707 7.41471C49.2845 7.41471 49.4034 7.4095 49.5275 7.39909C49.6516 7.37826 49.7705 7.36784 49.8843 7.36784C50.029 7.36784 50.1428 7.43034 50.2255 7.55533C50.3186 7.68032 50.3651 7.81573 50.3651 7.96156C50.3651 8.13863 50.3134 8.26883 50.21 8.35216C50.1169 8.42508 49.998 8.47716 49.8532 8.5084C49.7188 8.52924 49.574 8.53965 49.4189 8.53965C49.2638 8.52924 49.1345 8.52403 49.0311 8.52403C48.7002 8.52403 48.3899 8.5084 48.1003 8.47716C47.8108 8.44591 47.5212 8.40945 47.2317 8.36779C46.9628 8.31571 46.7611 8.25321 46.6267 8.1803C46.4922 8.09697 46.394 7.97718 46.332 7.82094C46.2699 7.65428 46.2234 7.42513 46.1923 7.13348C46.1717 6.83141 46.1406 6.4356 46.0993 5.94604C46.0889 5.68564 46.0786 5.42523 46.0682 5.16483C46.0579 4.90443 46.0527 4.65965 46.0527 4.43049C46.0527 4.35758 46.0786 4.27946 46.1303 4.19613C46.182 4.10239 46.2441 4.01906 46.3164 3.94614C46.3992 3.86281 46.4871 3.80032 46.5802 3.75865C46.6732 3.70657 46.7663 3.68053 46.8594 3.68053ZM52.5679 1.99312C52.4851 1.88896 52.4438 1.79521 52.4438 1.71189C52.4438 1.57648 52.5058 1.45669 52.6299 1.35253C52.7644 1.23795 52.9143 1.18066 53.0798 1.18066C53.2659 1.18066 53.4262 1.25358 53.5607 1.3994L54.1191 2.18061C54.2742 2.39935 54.3931 2.6285 54.4759 2.86808C54.5586 3.09723 54.6155 3.3368 54.6465 3.58679C54.6775 3.82636 54.6982 4.07114 54.7086 4.32112C54.7189 4.5607 54.7344 4.80027 54.7551 5.03984C55.1377 5.05025 55.5359 5.05546 55.9495 5.05546C56.3632 5.05546 56.7252 5.05546 57.0354 5.05546C57.1595 5.07629 57.2474 5.12837 57.2991 5.2117C57.3612 5.29503 57.3922 5.38878 57.3922 5.49294C57.3922 5.67001 57.3353 5.83667 57.2215 5.99291C57.1078 6.13874 56.963 6.21165 56.7872 6.21165C56.4563 6.21165 56.115 6.21686 55.7634 6.22728C55.4221 6.23769 55.086 6.2429 54.7551 6.2429C54.7448 6.71162 54.7137 7.16472 54.662 7.6022C54.6207 8.03968 54.5638 8.46153 54.4914 8.86776C54.4604 9.06567 54.3725 9.20629 54.2277 9.28961C54.0932 9.36253 53.9536 9.39898 53.8089 9.39898C53.6641 9.39898 53.54 9.36774 53.4366 9.30524C53.3435 9.23233 53.2969 9.12816 53.2969 8.99275C53.2969 8.95109 53.3021 8.91984 53.3125 8.89901C53.4055 8.43028 53.4728 7.93031 53.5141 7.39909C53.5555 6.85745 53.5762 6.33143 53.5762 5.82104C53.5762 5.28982 53.5555 4.80027 53.5141 4.35237C53.4831 3.90448 53.4366 3.52429 53.3745 3.21181C53.2814 3.02432 53.1625 2.83162 53.0177 2.63371C52.8833 2.42539 52.7333 2.21186 52.5679 1.99312Z" fill="black"/>
<path d="M48.969 12.4491C49.1759 12.4699 49.4809 12.4855 49.8843 12.496C50.2876 12.496 50.7219 12.496 51.1873 12.496C51.632 12.496 52.056 12.496 52.4593 12.496C52.8729 12.4855 53.1884 12.4803 53.4055 12.4803C53.5503 12.5012 53.6589 12.5689 53.7313 12.6834C53.8037 12.798 53.8399 12.923 53.8399 13.0584C53.8399 13.2355 53.7933 13.3657 53.7003 13.449C53.6175 13.5324 53.4934 13.5897 53.328 13.6209C53.1625 13.6417 52.9608 13.6522 52.723 13.6522C52.4955 13.6417 52.2421 13.6365 51.9629 13.6365C51.663 13.6365 51.3683 13.6365 51.0787 13.6365C50.7995 13.6365 50.5254 13.6313 50.2566 13.6209C50.2566 13.9542 50.2617 14.2771 50.2721 14.5896C50.2824 14.9021 50.3031 15.2094 50.3341 15.5114C50.5099 15.5427 50.7271 15.5687 50.9856 15.5895C51.2442 15.6 51.5182 15.6052 51.8078 15.6052C52.1077 15.6052 52.4024 15.5895 52.692 15.5583C52.9815 15.5271 53.2504 15.5114 53.4986 15.5114C53.633 15.5114 53.7416 15.5687 53.8244 15.6833C53.9174 15.7979 53.964 15.9281 53.964 16.0739C53.964 16.1885 53.9381 16.2926 53.8864 16.3864C53.8347 16.4801 53.7571 16.5426 53.6537 16.5739C53.3952 16.6051 53.116 16.6312 52.8161 16.652C52.5265 16.6728 52.2369 16.6832 51.9474 16.6832C51.9784 17.027 52.0043 17.3759 52.0249 17.73C52.056 18.0842 52.0715 18.4592 52.0715 18.855C52.8161 18.8237 53.54 18.7665 54.2432 18.6831C54.9464 18.5894 55.5669 18.4696 56.1047 18.3238H56.1512C56.2546 18.3238 56.3477 18.3915 56.4304 18.5269C56.5132 18.6519 56.5545 18.7821 56.5545 18.9175C56.5545 19.0321 56.5287 19.131 56.477 19.2143C56.4252 19.2977 56.3322 19.355 56.1977 19.3862C55.8048 19.5008 55.3601 19.5997 54.8637 19.6831C54.3776 19.756 53.8657 19.8237 53.328 19.8862C52.8006 19.9383 52.2525 19.9799 51.6837 20.0112C51.1252 20.032 50.5771 20.0424 50.0394 20.0424C49.3879 20.0424 48.7674 20.0268 48.1779 19.9956C47.5988 19.9539 47.0869 19.8966 46.6422 19.8237C46.5078 19.8029 46.4095 19.7508 46.3475 19.6674C46.2854 19.5737 46.2544 19.4695 46.2544 19.355C46.2544 19.1987 46.2906 19.0581 46.363 18.9331C46.4457 18.7977 46.5698 18.73 46.7353 18.73C47.1593 18.7925 47.6246 18.8446 48.1314 18.8862C48.6381 18.9175 49.1707 18.9331 49.7291 18.9331C49.9153 18.9331 50.1014 18.9331 50.2876 18.9331C50.4841 18.9227 50.6857 18.9123 50.8926 18.9019C50.8926 18.5581 50.877 18.1832 50.846 17.7769C50.8253 17.3707 50.815 17.0009 50.815 16.6676C50.3393 16.6676 49.9566 16.6051 49.6671 16.4801C49.3775 16.3551 49.2172 16.0843 49.1862 15.6677C49.1552 15.3031 49.1293 14.9594 49.1086 14.6365C49.0983 14.3032 49.0931 13.9542 49.0931 13.5897H49.0001C48.7622 13.5897 48.5967 13.5272 48.5037 13.4022C48.4209 13.2772 48.3796 13.1418 48.3796 12.9959C48.4003 12.8605 48.4571 12.7355 48.5502 12.621C48.6536 12.5064 48.7932 12.4491 48.969 12.4491ZM49.5275 21.9798C49.8998 21.9173 50.3341 21.8601 50.8305 21.808C51.3269 21.7559 51.8026 21.7298 52.2576 21.7298C52.5679 21.7298 52.8161 21.7819 53.0022 21.8861C53.1987 21.9798 53.3487 22.11 53.4521 22.2767C53.5658 22.4329 53.6382 22.6152 53.6692 22.8235C53.7106 23.0319 53.7313 23.2454 53.7313 23.4641C53.7313 23.8183 53.7106 24.162 53.6692 24.4953C53.6279 24.8391 53.5813 25.1463 53.5296 25.4171C53.5089 25.5421 53.4521 25.6307 53.359 25.6828C53.2659 25.7348 53.1625 25.7609 53.0488 25.7609C52.8729 25.7609 52.7178 25.7088 52.5834 25.6046C52.4593 25.5109 52.3972 25.3911 52.3972 25.2453C52.3972 25.1932 52.4024 25.1568 52.4128 25.1359C52.4645 24.8859 52.5007 24.6203 52.5213 24.3391C52.5524 24.0578 52.5679 23.8079 52.5679 23.5891C52.5679 23.2871 52.511 23.0944 52.3972 23.011C52.2938 22.9277 52.149 22.886 51.9629 22.886C51.7767 22.886 51.5751 22.8965 51.3579 22.9173C51.1511 22.9381 50.9391 22.9642 50.7219 22.9954C50.5151 23.0267 50.3186 23.0527 50.1325 23.0735C49.9463 23.0944 49.786 23.1048 49.6516 23.1048C49.5275 23.1048 49.4241 23.0371 49.3413 22.9017C49.2689 22.7662 49.2327 22.6152 49.2327 22.4486C49.2327 22.334 49.2534 22.235 49.2948 22.1517C49.3465 22.058 49.4241 22.0007 49.5275 21.9798Z" fill="black"/>
<path d="M59.4679 19.9123C59.6747 19.9332 59.9178 19.9488 60.197 19.9592C60.4762 19.9592 60.7658 19.9592 61.0657 19.9592C61.3552 19.9592 61.6396 19.9592 61.9188 19.9592C62.1981 19.9488 62.4463 19.9436 62.6634 19.9436C62.8185 19.9644 62.922 20.0373 62.9737 20.1623C63.0357 20.2769 63.0667 20.4019 63.0667 20.5373C63.0667 20.7248 63.0047 20.8654 62.8806 20.9591C62.7565 21.0425 62.6014 21.0998 62.4152 21.131C62.2394 21.1518 62.0429 21.157 61.8258 21.1466C61.6189 21.1362 61.4224 21.131 61.2363 21.131C60.9984 21.131 60.7658 21.131 60.5382 21.131C60.3107 21.131 60.0936 21.1206 59.8867 21.0998C59.8867 21.506 59.8919 21.9226 59.9022 22.3497C59.9126 22.7768 59.9436 23.1413 59.9953 23.4434C60.2642 23.4955 60.5434 23.5423 60.833 23.584C61.1329 23.6257 61.4483 23.6465 61.7792 23.6465C61.893 23.6465 62.0119 23.6413 62.136 23.6309C62.2601 23.61 62.379 23.5996 62.4928 23.5996C62.6376 23.5996 62.7513 23.6621 62.8341 23.7871C62.9271 23.9121 62.9737 24.0475 62.9737 24.1933C62.9737 24.3704 62.922 24.5006 62.8185 24.584C62.7255 24.6569 62.6065 24.7089 62.4618 24.7402C62.3273 24.761 62.1825 24.7714 62.0274 24.7714C61.8723 24.761 61.743 24.7558 61.6396 24.7558C61.3087 24.7558 60.9984 24.7402 60.7089 24.7089C60.4193 24.6777 60.1298 24.6412 59.8402 24.5996C59.5713 24.5475 59.3697 24.485 59.2352 24.4121C59.1008 24.3288 59.0025 24.209 58.9405 24.0527C58.8784 23.8861 58.8319 23.6569 58.8009 23.3653C58.7802 23.0632 58.7492 22.6674 58.7078 22.1778C58.6975 21.9174 58.6871 21.657 58.6768 21.3966C58.6664 21.1362 58.6613 20.8914 58.6613 20.6623C58.6613 20.5894 58.6871 20.5112 58.7388 20.4279C58.7905 20.3342 58.8526 20.2508 58.925 20.1779C59.0077 20.0946 59.0956 20.0321 59.1887 19.9904C59.2818 19.9384 59.3748 19.9123 59.4679 19.9123ZM65.1764 18.2249C65.0937 18.1207 65.0523 18.027 65.0523 17.9437C65.0523 17.8083 65.1144 17.6885 65.2385 17.5843C65.3729 17.4697 65.5228 17.4125 65.6883 17.4125C65.8745 17.4125 66.0347 17.4854 66.1692 17.6312L66.7276 18.4124C66.8827 18.6311 67.0017 18.8603 67.0844 19.0999C67.1671 19.329 67.224 19.5686 67.255 19.8186C67.2861 20.0581 67.3068 20.3029 67.3171 20.5529C67.3274 20.7925 67.3429 21.0321 67.3636 21.2716C67.7463 21.282 68.1444 21.2873 68.5581 21.2873C68.9717 21.2873 69.3337 21.2873 69.6439 21.2873C69.768 21.3081 69.8559 21.3602 69.9076 21.4435C69.9697 21.5268 70.0007 21.6206 70.0007 21.7247C70.0007 21.9018 69.9438 22.0685 69.8301 22.2247C69.7163 22.3705 69.5715 22.4434 69.3957 22.4434C69.0648 22.4434 68.7235 22.4486 68.3719 22.4591C68.0307 22.4695 67.6946 22.4747 67.3636 22.4747C67.3533 22.9434 67.3223 23.3965 67.2706 23.834C67.2292 24.2715 67.1723 24.6933 67.0999 25.0995C67.0689 25.2975 66.981 25.4381 66.8362 25.5214C66.7018 25.5943 66.5622 25.6308 66.4174 25.6308C66.2726 25.6308 66.1485 25.5995 66.0451 25.537C65.952 25.4641 65.9055 25.3599 65.9055 25.2245C65.9055 25.1829 65.9107 25.1516 65.921 25.1308C66.0141 24.6621 66.0813 24.1621 66.1227 23.6309C66.164 23.0892 66.1847 22.5632 66.1847 22.0528C66.1847 21.5216 66.164 21.0321 66.1227 20.5842C66.0916 20.1363 66.0451 19.7561 65.983 19.4436C65.89 19.2561 65.771 19.0634 65.6263 18.8655C65.4918 18.6572 65.3419 18.4436 65.1764 18.2249Z" fill="black"/>
<path d="M61.5776 1.72367C61.7844 1.7445 62.0895 1.76013 62.4928 1.77054C62.8961 1.77054 63.3305 1.77054 63.7958 1.77054C64.2405 1.77054 64.6645 1.77054 65.0679 1.77054C65.4815 1.76013 65.7969 1.75492 66.0141 1.75492C66.1589 1.77575 66.2675 1.84345 66.3399 1.95803C66.4122 2.07261 66.4484 2.1976 66.4484 2.33301C66.4484 2.51009 66.4019 2.64029 66.3088 2.72362C66.2261 2.80694 66.102 2.86423 65.9365 2.89548C65.7711 2.91631 65.5694 2.92673 65.3316 2.92673C65.104 2.91631 64.8507 2.91111 64.5715 2.91111C64.2716 2.91111 63.9768 2.91111 63.6873 2.91111C63.408 2.91111 63.134 2.9059 62.8651 2.89548C62.8651 3.2288 62.8703 3.5517 62.8806 3.86418C62.891 4.17666 62.9117 4.48394 62.9427 4.78601C63.1185 4.81726 63.3357 4.8433 63.5942 4.86413C63.8527 4.87454 64.1268 4.87975 64.4163 4.87975C64.7162 4.87975 65.011 4.86413 65.3005 4.83288C65.5901 4.80163 65.859 4.78601 66.1072 4.78601C66.2416 4.78601 66.3502 4.8433 66.4329 4.95787C66.526 5.07245 66.5725 5.20265 66.5725 5.34848C66.5725 5.46306 66.5467 5.56722 66.495 5.66096C66.4433 5.75471 66.3657 5.81721 66.2623 5.84845C66.0038 5.8797 65.7245 5.90574 65.4246 5.92657C65.1351 5.94741 64.8455 5.95782 64.556 5.95782C64.587 6.30156 64.6128 6.65049 64.6335 7.00464C64.6645 7.35879 64.68 7.73377 64.68 8.12958C65.4246 8.09833 66.1485 8.04105 66.8518 7.95772C67.555 7.86397 68.1755 7.74419 68.7132 7.59836H68.7598C68.8632 7.59836 68.9563 7.66607 69.039 7.80147C69.1217 7.92647 69.1631 8.05667 69.1631 8.19208C69.1631 8.30666 69.1372 8.40561 69.0855 8.48894C69.0338 8.57227 68.9407 8.62956 68.8063 8.6608C68.4133 8.77538 67.9686 8.87434 67.4722 8.95766C66.9862 9.03058 66.4743 9.09828 65.9365 9.16078C65.4091 9.21286 64.861 9.25452 64.2922 9.28577C63.7338 9.30661 63.1857 9.31702 62.6479 9.31702C61.9964 9.31702 61.3759 9.3014 60.7865 9.27015C60.2074 9.22848 59.6954 9.17119 59.2508 9.09828C59.1163 9.07745 59.0181 9.02537 58.956 8.94204C58.894 8.84829 58.863 8.74413 58.863 8.62956C58.863 8.47331 58.8992 8.3327 58.9715 8.2077C59.0543 8.0723 59.1784 8.00459 59.3438 8.00459C59.7678 8.06709 60.2332 8.11917 60.7399 8.16083C61.2467 8.19208 61.7793 8.2077 62.3377 8.2077C62.5238 8.2077 62.71 8.2077 62.8961 8.2077C63.0926 8.19729 63.2943 8.18687 63.5011 8.17646C63.5011 7.83272 63.4856 7.45774 63.4546 7.05152C63.4339 6.64529 63.4236 6.27552 63.4236 5.9422C62.9478 5.9422 62.5652 5.8797 62.2756 5.75471C61.9861 5.62971 61.8258 5.35889 61.7948 4.94225C61.7637 4.57768 61.7379 4.23395 61.7172 3.91105C61.7069 3.57774 61.7017 3.2288 61.7017 2.86423H61.6086C61.3708 2.86423 61.2053 2.80174 61.1122 2.67674C61.0295 2.55175 60.9881 2.41634 60.9881 2.27052C61.0088 2.13511 61.0657 2.01011 61.1588 1.89554C61.2622 1.78096 61.4018 1.72367 61.5776 1.72367ZM62.136 11.2544C62.5083 11.1919 62.9427 11.1346 63.4391 11.0826C63.9355 11.0305 64.4112 11.0044 64.8662 11.0044C65.1764 11.0044 65.4246 11.0565 65.6108 11.1607C65.8073 11.2544 65.9572 11.3846 66.0606 11.5513C66.1744 11.7075 66.2468 11.8898 66.2778 12.0981C66.3192 12.3064 66.3399 12.52 66.3399 12.7387C66.3399 13.0929 66.3192 13.4366 66.2778 13.7699C66.2364 14.1136 66.1899 14.4209 66.1382 14.6917C66.1175 14.8167 66.0606 14.9053 65.9676 14.9573C65.8745 15.0094 65.7711 15.0355 65.6573 15.0355C65.4815 15.0355 65.3264 14.9834 65.192 14.8792C65.0679 14.7855 65.0058 14.6657 65.0058 14.5199C65.0058 14.4678 65.011 14.4313 65.0213 14.4105C65.073 14.1605 65.1092 13.8949 65.1299 13.6137C65.1609 13.3324 65.1764 13.0824 65.1764 12.8637C65.1764 12.5616 65.1196 12.3689 65.0058 12.2856C64.9024 12.2023 64.7576 12.1606 64.5715 12.1606C64.3853 12.1606 64.1837 12.171 63.9665 12.1919C63.7597 12.2127 63.5477 12.2387 63.3305 12.27C63.1237 12.3012 62.9272 12.3273 62.741 12.3481C62.5549 12.3689 62.3946 12.3794 62.2601 12.3794C62.136 12.3794 62.0326 12.3117 61.9499 12.1762C61.8775 12.0408 61.8413 11.8898 61.8413 11.7231C61.8413 11.6086 61.862 11.5096 61.9034 11.4263C61.9551 11.3325 62.0326 11.2753 62.136 11.2544Z" fill="black"/>
<path d="M46.8594 3.68053C47.0662 3.70137 47.3092 3.71699 47.5884 3.72741C47.8677 3.72741 48.1572 3.72741 48.4571 3.72741C48.7467 3.72741 49.0311 3.72741 49.3103 3.72741C49.5895 3.71699 49.8377 3.71178 50.0549 3.71178C50.21 3.73261 50.3134 3.80553 50.3651 3.93052C50.4272 4.0451 50.4582 4.17009 50.4582 4.3055C50.4582 4.49299 50.3962 4.63361 50.2721 4.72735C50.148 4.81068 49.9928 4.86797 49.8067 4.89922C49.6309 4.92005 49.4344 4.92526 49.2172 4.91484C49.0104 4.90443 48.8139 4.89922 48.6278 4.89922C48.3899 4.89922 48.1572 4.89922 47.9297 4.89922C47.7022 4.89922 47.485 4.8888 47.2782 4.86797C47.2782 5.2742 47.2834 5.69084 47.2937 6.11791C47.3041 6.54497 47.3351 6.90953 47.3868 7.2116C47.6557 7.26368 47.9349 7.31055 48.2244 7.35222C48.5244 7.39388 48.8398 7.41471 49.1707 7.41471C49.2845 7.41471 49.4034 7.4095 49.5275 7.39909C49.6516 7.37826 49.7705 7.36784 49.8843 7.36784C50.029 7.36784 50.1428 7.43034 50.2255 7.55533C50.3186 7.68032 50.3651 7.81573 50.3651 7.96156C50.3651 8.13863 50.3134 8.26883 50.21 8.35216C50.1169 8.42508 49.998 8.47716 49.8532 8.5084C49.7188 8.52924 49.574 8.53965 49.4189 8.53965C49.2638 8.52924 49.1345 8.52403 49.0311 8.52403C48.7002 8.52403 48.3899 8.5084 48.1003 8.47716C47.8108 8.44591 47.5212 8.40945 47.2317 8.36779C46.9628 8.31571 46.7611 8.25321 46.6267 8.1803C46.4922 8.09697 46.394 7.97718 46.332 7.82094C46.2699 7.65428 46.2234 7.42513 46.1923 7.13348C46.1717 6.83141 46.1406 6.4356 46.0993 5.94604C46.0889 5.68564 46.0786 5.42523 46.0682 5.16483C46.0579 4.90443 46.0527 4.65965 46.0527 4.43049C46.0527 4.35758 46.0786 4.27946 46.1303 4.19613C46.182 4.10239 46.2441 4.01906 46.3164 3.94614C46.3992 3.86281 46.4871 3.80032 46.5802 3.75865C46.6732 3.70657 46.7663 3.68053 46.8594 3.68053ZM52.5679 1.99312C52.4851 1.88896 52.4438 1.79521 52.4438 1.71189C52.4438 1.57648 52.5058 1.45669 52.6299 1.35253C52.7644 1.23795 52.9143 1.18066 53.0798 1.18066C53.2659 1.18066 53.4262 1.25358 53.5607 1.3994L54.1191 2.18061C54.2742 2.39935 54.3931 2.6285 54.4759 2.86808C54.5586 3.09723 54.6155 3.3368 54.6465 3.58679C54.6775 3.82636 54.6982 4.07114 54.7086 4.32112C54.7189 4.5607 54.7344 4.80027 54.7551 5.03984C55.1377 5.05025 55.5359 5.05546 55.9495 5.05546C56.3632 5.05546 56.7252 5.05546 57.0354 5.05546C57.1595 5.07629 57.2474 5.12837 57.2991 5.2117C57.3612 5.29503 57.3922 5.38878 57.3922 5.49294C57.3922 5.67001 57.3353 5.83667 57.2215 5.99291C57.1078 6.13874 56.963 6.21165 56.7872 6.21165C56.4563 6.21165 56.115 6.21686 55.7634 6.22728C55.4221 6.23769 55.086 6.2429 54.7551 6.2429C54.7448 6.71162 54.7137 7.16472 54.662 7.6022C54.6207 8.03968 54.5638 8.46153 54.4914 8.86776C54.4604 9.06567 54.3725 9.20629 54.2277 9.28961C54.0932 9.36253 53.9536 9.39898 53.8089 9.39898C53.6641 9.39898 53.54 9.36774 53.4366 9.30524C53.3435 9.23233 53.2969 9.12816 53.2969 8.99275C53.2969 8.95109 53.3021 8.91984 53.3125 8.89901C53.4055 8.43028 53.4728 7.93031 53.5141 7.39909C53.5555 6.85745 53.5762 6.33143 53.5762 5.82104C53.5762 5.28982 53.5555 4.80027 53.5141 4.35237C53.4831 3.90448 53.4366 3.52429 53.3745 3.21181C53.2814 3.02432 53.1625 2.83162 53.0177 2.63371C52.8833 2.42539 52.7333 2.21186 52.5679 1.99312Z" stroke="black" stroke-width="0.565689" mask="url(#path-5-outside-1_150_1450)"/>
<path d="M48.969 12.4491C49.1759 12.4699 49.4809 12.4855 49.8843 12.496C50.2876 12.496 50.7219 12.496 51.1873 12.496C51.632 12.496 52.056 12.496 52.4593 12.496C52.8729 12.4855 53.1884 12.4803 53.4055 12.4803C53.5503 12.5012 53.6589 12.5689 53.7313 12.6834C53.8037 12.798 53.8399 12.923 53.8399 13.0584C53.8399 13.2355 53.7933 13.3657 53.7003 13.449C53.6175 13.5324 53.4934 13.5897 53.328 13.6209C53.1625 13.6417 52.9608 13.6522 52.723 13.6522C52.4955 13.6417 52.2421 13.6365 51.9629 13.6365C51.663 13.6365 51.3683 13.6365 51.0787 13.6365C50.7995 13.6365 50.5254 13.6313 50.2566 13.6209C50.2566 13.9542 50.2617 14.2771 50.2721 14.5896C50.2824 14.9021 50.3031 15.2094 50.3341 15.5114C50.5099 15.5427 50.7271 15.5687 50.9856 15.5895C51.2442 15.6 51.5182 15.6052 51.8078 15.6052C52.1077 15.6052 52.4024 15.5895 52.692 15.5583C52.9815 15.5271 53.2504 15.5114 53.4986 15.5114C53.633 15.5114 53.7416 15.5687 53.8244 15.6833C53.9174 15.7979 53.964 15.9281 53.964 16.0739C53.964 16.1885 53.9381 16.2926 53.8864 16.3864C53.8347 16.4801 53.7571 16.5426 53.6537 16.5739C53.3952 16.6051 53.116 16.6312 52.8161 16.652C52.5265 16.6728 52.2369 16.6832 51.9474 16.6832C51.9784 17.027 52.0043 17.3759 52.0249 17.73C52.056 18.0842 52.0715 18.4592 52.0715 18.855C52.8161 18.8237 53.54 18.7665 54.2432 18.6831C54.9464 18.5894 55.5669 18.4696 56.1047 18.3238H56.1512C56.2546 18.3238 56.3477 18.3915 56.4304 18.5269C56.5132 18.6519 56.5545 18.7821 56.5545 18.9175C56.5545 19.0321 56.5287 19.131 56.477 19.2143C56.4252 19.2977 56.3322 19.355 56.1977 19.3862C55.8048 19.5008 55.3601 19.5997 54.8637 19.6831C54.3776 19.756 53.8657 19.8237 53.328 19.8862C52.8006 19.9383 52.2525 19.9799 51.6837 20.0112C51.1252 20.032 50.5771 20.0424 50.0394 20.0424C49.3879 20.0424 48.7674 20.0268 48.1779 19.9956C47.5988 19.9539 47.0869 19.8966 46.6422 19.8237C46.5078 19.8029 46.4095 19.7508 46.3475 19.6674C46.2854 19.5737 46.2544 19.4695 46.2544 19.355C46.2544 19.1987 46.2906 19.0581 46.363 18.9331C46.4457 18.7977 46.5698 18.73 46.7353 18.73C47.1593 18.7925 47.6246 18.8446 48.1314 18.8862C48.6381 18.9175 49.1707 18.9331 49.7291 18.9331C49.9153 18.9331 50.1014 18.9331 50.2876 18.9331C50.4841 18.9227 50.6857 18.9123 50.8926 18.9019C50.8926 18.5581 50.877 18.1832 50.846 17.7769C50.8253 17.3707 50.815 17.0009 50.815 16.6676C50.3393 16.6676 49.9566 16.6051 49.6671 16.4801C49.3775 16.3551 49.2172 16.0843 49.1862 15.6677C49.1552 15.3031 49.1293 14.9594 49.1086 14.6365C49.0983 14.3032 49.0931 13.9542 49.0931 13.5897H49.0001C48.7622 13.5897 48.5967 13.5272 48.5037 13.4022C48.4209 13.2772 48.3796 13.1418 48.3796 12.9959C48.4003 12.8605 48.4571 12.7355 48.5502 12.621C48.6536 12.5064 48.7932 12.4491 48.969 12.4491ZM49.5275 21.9798C49.8998 21.9173 50.3341 21.8601 50.8305 21.808C51.3269 21.7559 51.8026 21.7298 52.2576 21.7298C52.5679 21.7298 52.8161 21.7819 53.0022 21.8861C53.1987 21.9798 53.3487 22.11 53.4521 22.2767C53.5658 22.4329 53.6382 22.6152 53.6692 22.8235C53.7106 23.0319 53.7313 23.2454 53.7313 23.4641C53.7313 23.8183 53.7106 24.162 53.6692 24.4953C53.6279 24.8391 53.5813 25.1463 53.5296 25.4171C53.5089 25.5421 53.4521 25.6307 53.359 25.6828C53.2659 25.7348 53.1625 25.7609 53.0488 25.7609C52.8729 25.7609 52.7178 25.7088 52.5834 25.6046C52.4593 25.5109 52.3972 25.3911 52.3972 25.2453C52.3972 25.1932 52.4024 25.1568 52.4128 25.1359C52.4645 24.8859 52.5007 24.6203 52.5213 24.3391C52.5524 24.0578 52.5679 23.8079 52.5679 23.5891C52.5679 23.2871 52.511 23.0944 52.3972 23.011C52.2938 22.9277 52.149 22.886 51.9629 22.886C51.7767 22.886 51.5751 22.8965 51.3579 22.9173C51.1511 22.9381 50.9391 22.9642 50.7219 22.9954C50.5151 23.0267 50.3186 23.0527 50.1325 23.0735C49.9463 23.0944 49.786 23.1048 49.6516 23.1048C49.5275 23.1048 49.4241 23.0371 49.3413 22.9017C49.2689 22.7662 49.2327 22.6152 49.2327 22.4486C49.2327 22.334 49.2534 22.235 49.2948 22.1517C49.3465 22.058 49.4241 22.0007 49.5275 21.9798Z" stroke="black" stroke-width="0.565689" mask="url(#path-5-outside-1_150_1450)"/>
<path d="M59.4679 19.9123C59.6747 19.9332 59.9178 19.9488 60.197 19.9592C60.4762 19.9592 60.7658 19.9592 61.0657 19.9592C61.3552 19.9592 61.6396 19.9592 61.9188 19.9592C62.1981 19.9488 62.4463 19.9436 62.6634 19.9436C62.8185 19.9644 62.922 20.0373 62.9737 20.1623C63.0357 20.2769 63.0667 20.4019 63.0667 20.5373C63.0667 20.7248 63.0047 20.8654 62.8806 20.9591C62.7565 21.0425 62.6014 21.0998 62.4152 21.131C62.2394 21.1518 62.0429 21.157 61.8258 21.1466C61.6189 21.1362 61.4224 21.131 61.2363 21.131C60.9984 21.131 60.7658 21.131 60.5382 21.131C60.3107 21.131 60.0936 21.1206 59.8867 21.0998C59.8867 21.506 59.8919 21.9226 59.9022 22.3497C59.9126 22.7768 59.9436 23.1413 59.9953 23.4434C60.2642 23.4955 60.5434 23.5423 60.833 23.584C61.1329 23.6257 61.4483 23.6465 61.7792 23.6465C61.893 23.6465 62.0119 23.6413 62.136 23.6309C62.2601 23.61 62.379 23.5996 62.4928 23.5996C62.6376 23.5996 62.7513 23.6621 62.8341 23.7871C62.9271 23.9121 62.9737 24.0475 62.9737 24.1933C62.9737 24.3704 62.922 24.5006 62.8185 24.584C62.7255 24.6569 62.6065 24.7089 62.4618 24.7402C62.3273 24.761 62.1825 24.7714 62.0274 24.7714C61.8723 24.761 61.743 24.7558 61.6396 24.7558C61.3087 24.7558 60.9984 24.7402 60.7089 24.7089C60.4193 24.6777 60.1298 24.6412 59.8402 24.5996C59.5713 24.5475 59.3697 24.485 59.2352 24.4121C59.1008 24.3288 59.0025 24.209 58.9405 24.0527C58.8784 23.8861 58.8319 23.6569 58.8009 23.3653C58.7802 23.0632 58.7492 22.6674 58.7078 22.1778C58.6975 21.9174 58.6871 21.657 58.6768 21.3966C58.6664 21.1362 58.6613 20.8914 58.6613 20.6623C58.6613 20.5894 58.6871 20.5112 58.7388 20.4279C58.7905 20.3342 58.8526 20.2508 58.925 20.1779C59.0077 20.0946 59.0956 20.0321 59.1887 19.9904C59.2818 19.9384 59.3748 19.9123 59.4679 19.9123ZM65.1764 18.2249C65.0937 18.1207 65.0523 18.027 65.0523 17.9437C65.0523 17.8083 65.1144 17.6885 65.2385 17.5843C65.3729 17.4697 65.5228 17.4125 65.6883 17.4125C65.8745 17.4125 66.0347 17.4854 66.1692 17.6312L66.7276 18.4124C66.8827 18.6311 67.0017 18.8603 67.0844 19.0999C67.1671 19.329 67.224 19.5686 67.255 19.8186C67.2861 20.0581 67.3068 20.3029 67.3171 20.5529C67.3274 20.7925 67.3429 21.0321 67.3636 21.2716C67.7463 21.282 68.1444 21.2873 68.5581 21.2873C68.9717 21.2873 69.3337 21.2873 69.6439 21.2873C69.768 21.3081 69.8559 21.3602 69.9076 21.4435C69.9697 21.5268 70.0007 21.6206 70.0007 21.7247C70.0007 21.9018 69.9438 22.0685 69.8301 22.2247C69.7163 22.3705 69.5715 22.4434 69.3957 22.4434C69.0648 22.4434 68.7235 22.4486 68.3719 22.4591C68.0307 22.4695 67.6946 22.4747 67.3636 22.4747C67.3533 22.9434 67.3223 23.3965 67.2706 23.834C67.2292 24.2715 67.1723 24.6933 67.0999 25.0995C67.0689 25.2975 66.981 25.4381 66.8362 25.5214C66.7018 25.5943 66.5622 25.6308 66.4174 25.6308C66.2726 25.6308 66.1485 25.5995 66.0451 25.537C65.952 25.4641 65.9055 25.3599 65.9055 25.2245C65.9055 25.1829 65.9107 25.1516 65.921 25.1308C66.0141 24.6621 66.0813 24.1621 66.1227 23.6309C66.164 23.0892 66.1847 22.5632 66.1847 22.0528C66.1847 21.5216 66.164 21.0321 66.1227 20.5842C66.0916 20.1363 66.0451 19.7561 65.983 19.4436C65.89 19.2561 65.771 19.0634 65.6263 18.8655C65.4918 18.6572 65.3419 18.4436 65.1764 18.2249Z" stroke="black" stroke-width="0.565689" mask="url(#path-5-outside-1_150_1450)"/>
<path d="M61.5776 1.72367C61.7844 1.7445 62.0895 1.76013 62.4928 1.77054C62.8961 1.77054 63.3305 1.77054 63.7958 1.77054C64.2405 1.77054 64.6645 1.77054 65.0679 1.77054C65.4815 1.76013 65.7969 1.75492 66.0141 1.75492C66.1589 1.77575 66.2675 1.84345 66.3399 1.95803C66.4122 2.07261 66.4484 2.1976 66.4484 2.33301C66.4484 2.51009 66.4019 2.64029 66.3088 2.72362C66.2261 2.80694 66.102 2.86423 65.9365 2.89548C65.7711 2.91631 65.5694 2.92673 65.3316 2.92673C65.104 2.91631 64.8507 2.91111 64.5715 2.91111C64.2716 2.91111 63.9768 2.91111 63.6873 2.91111C63.408 2.91111 63.134 2.9059 62.8651 2.89548C62.8651 3.2288 62.8703 3.5517 62.8806 3.86418C62.891 4.17666 62.9117 4.48394 62.9427 4.78601C63.1185 4.81726 63.3357 4.8433 63.5942 4.86413C63.8527 4.87454 64.1268 4.87975 64.4163 4.87975C64.7162 4.87975 65.011 4.86413 65.3005 4.83288C65.5901 4.80163 65.859 4.78601 66.1072 4.78601C66.2416 4.78601 66.3502 4.8433 66.4329 4.95787C66.526 5.07245 66.5725 5.20265 66.5725 5.34848C66.5725 5.46306 66.5467 5.56722 66.495 5.66096C66.4433 5.75471 66.3657 5.81721 66.2623 5.84845C66.0038 5.8797 65.7245 5.90574 65.4246 5.92657C65.1351 5.94741 64.8455 5.95782 64.556 5.95782C64.587 6.30156 64.6128 6.65049 64.6335 7.00464C64.6645 7.35879 64.68 7.73377 64.68 8.12958C65.4246 8.09833 66.1485 8.04105 66.8518 7.95772C67.555 7.86397 68.1755 7.74419 68.7132 7.59836H68.7598C68.8632 7.59836 68.9563 7.66607 69.039 7.80147C69.1217 7.92647 69.1631 8.05667 69.1631 8.19208C69.1631 8.30666 69.1372 8.40561 69.0855 8.48894C69.0338 8.57227 68.9407 8.62956 68.8063 8.6608C68.4133 8.77538 67.9686 8.87434 67.4722 8.95766C66.9862 9.03058 66.4743 9.09828 65.9365 9.16078C65.4091 9.21286 64.861 9.25452 64.2922 9.28577C63.7338 9.30661 63.1857 9.31702 62.6479 9.31702C61.9964 9.31702 61.3759 9.3014 60.7865 9.27015C60.2074 9.22848 59.6954 9.17119 59.2508 9.09828C59.1163 9.07745 59.0181 9.02537 58.956 8.94204C58.894 8.84829 58.863 8.74413 58.863 8.62956C58.863 8.47331 58.8992 8.3327 58.9715 8.2077C59.0543 8.0723 59.1784 8.00459 59.3438 8.00459C59.7678 8.06709 60.2332 8.11917 60.7399 8.16083C61.2467 8.19208 61.7793 8.2077 62.3377 8.2077C62.5238 8.2077 62.71 8.2077 62.8961 8.2077C63.0926 8.19729 63.2943 8.18687 63.5011 8.17646C63.5011 7.83272 63.4856 7.45774 63.4546 7.05152C63.4339 6.64529 63.4236 6.27552 63.4236 5.9422C62.9478 5.9422 62.5652 5.8797 62.2756 5.75471C61.9861 5.62971 61.8258 5.35889 61.7948 4.94225C61.7637 4.57768 61.7379 4.23395 61.7172 3.91105C61.7069 3.57774 61.7017 3.2288 61.7017 2.86423H61.6086C61.3708 2.86423 61.2053 2.80174 61.1122 2.67674C61.0295 2.55175 60.9881 2.41634 60.9881 2.27052C61.0088 2.13511 61.0657 2.01011 61.1588 1.89554C61.2622 1.78096 61.4018 1.72367 61.5776 1.72367ZM62.136 11.2544C62.5083 11.1919 62.9427 11.1346 63.4391 11.0826C63.9355 11.0305 64.4112 11.0044 64.8662 11.0044C65.1764 11.0044 65.4246 11.0565 65.6108 11.1607C65.8073 11.2544 65.9572 11.3846 66.0606 11.5513C66.1744 11.7075 66.2468 11.8898 66.2778 12.0981C66.3192 12.3064 66.3399 12.52 66.3399 12.7387C66.3399 13.0929 66.3192 13.4366 66.2778 13.7699C66.2364 14.1136 66.1899 14.4209 66.1382 14.6917C66.1175 14.8167 66.0606 14.9053 65.9676 14.9573C65.8745 15.0094 65.7711 15.0355 65.6573 15.0355C65.4815 15.0355 65.3264 14.9834 65.192 14.8792C65.0679 14.7855 65.0058 14.6657 65.0058 14.5199C65.0058 14.4678 65.011 14.4313 65.0213 14.4105C65.073 14.1605 65.1092 13.8949 65.1299 13.6137C65.1609 13.3324 65.1764 13.0824 65.1764 12.8637C65.1764 12.5616 65.1196 12.3689 65.0058 12.2856C64.9024 12.2023 64.7576 12.1606 64.5715 12.1606C64.3853 12.1606 64.1837 12.171 63.9665 12.1919C63.7597 12.2127 63.5477 12.2387 63.3305 12.27C63.1237 12.3012 62.9272 12.3273 62.741 12.3481C62.5549 12.3689 62.3946 12.3794 62.2601 12.3794C62.136 12.3794 62.0326 12.3117 61.9499 12.1762C61.8775 12.0408 61.8413 11.8898 61.8413 11.7231C61.8413 11.6086 61.862 11.5096 61.9034 11.4263C61.9551 11.3325 62.0326 11.2753 62.136 11.2544Z" stroke="black" stroke-width="0.565689" mask="url(#path-5-outside-1_150_1450)"/>
</svg>