<svg width="20" height="20" viewBox="0 0 20 20" fill="none" xmlns="http://www.w3.org/2000/svg">
<path fill-rule="evenodd" clip-rule="evenodd" d="M5.80736 17.9433C5.74916 17.8853 5.70298 17.8163 5.67147 17.7404C5.63996 17.6644 5.62374 17.583 5.62374 17.5008C5.62374 17.4186 5.63996 17.3372 5.67147 17.2613C5.70298 17.1854 5.74916 17.1164 5.80736 17.0583L12.8661 10.0008L5.80736 2.94334C5.69 2.82598 5.62407 2.66681 5.62407 2.50084C5.62407 2.33487 5.69 2.1757 5.80736 2.05834C5.92472 1.94098 6.08389 1.87505 6.24986 1.87505C6.41583 1.87505 6.575 1.94098 6.69236 2.05834L14.1924 9.55834C14.2506 9.61639 14.2967 9.68536 14.3282 9.76129C14.3598 9.83723 14.376 9.91863 14.376 10.0008C14.376 10.083 14.3598 10.1644 14.3282 10.2404C14.2967 10.3163 14.2506 10.3853 14.1924 10.4433L6.69236 17.9433C6.6343 18.0015 6.56533 18.0477 6.4894 18.0792C6.41347 18.1107 6.33207 18.127 6.24986 18.127C6.16765 18.127 6.08625 18.1107 6.01032 18.0792C5.93439 18.0477 5.86542 18.0015 5.80736 17.9433V17.9433Z" fill="#2D2D2D" stroke="#2D2D2D"/>
</svg>
