<svg viewBox="0 0 20 20" fill="none" xmlns="http://www.w3.org/2000/svg">
<path fill-rule="evenodd" clip-rule="evenodd" d="M14.1926 2.05666C14.2508 2.11472 14.297 2.18369 14.3285 2.25962C14.36 2.33555 14.3763 2.41696 14.3763 2.49916C14.3763 2.58137 14.36 2.66277 14.3285 2.73871C14.297 2.81464 14.2508 2.88361 14.1926 2.94166L7.13389 9.99916L14.1926 17.0567C14.31 17.174 14.3759 17.3332 14.3759 17.4992C14.3759 17.6651 14.31 17.8243 14.1926 17.9417C14.0753 18.059 13.9161 18.125 13.7501 18.125C13.5842 18.125 13.425 18.059 13.3076 17.9417L5.80764 10.4417C5.74944 10.3836 5.70326 10.3146 5.67175 10.2387C5.64024 10.1628 5.62402 10.0814 5.62402 9.99916C5.62402 9.91695 5.64024 9.83555 5.67175 9.75962C5.70326 9.68369 5.74944 9.61472 5.80764 9.55666L13.3076 2.05666C13.3657 1.99846 13.4347 1.95228 13.5106 1.92077C13.5865 1.88927 13.6679 1.87305 13.7501 1.87305C13.8323 1.87305 13.9137 1.88927 13.9897 1.92077C14.0656 1.95228 14.1346 1.99846 14.1926 2.05666V2.05666Z" fill="black"/>
</svg>
