<svg viewBox="0 0 20 20" fill="none" xmlns="http://www.w3.org/2000/svg">
<rect width="20" height="20" rx="10" fill="#ECECEC"/>
<mask id="mask0_1200_6956" style="mask-type:alpha" maskUnits="userSpaceOnUse" x="0" y="0" width="20" height="20">
<circle cx="10" cy="10" r="10" fill="#D9D9D9"/>
</mask>
<g mask="url(#mask0_1200_6956)">
<path d="M6 7.99933C6 5.79023 7.79023 4 9.99933 4C12.2084 4 14 5.79023 14 7.99933C14 10.2098 12.2084 12 9.99933 12C7.79023 12 6 10.2098 6 7.99933Z" fill="#FAFAFA"/>
<path d="M2 19.4989C2 15.9091 5.58046 13 9.99867 13C14.4169 13 18 15.9091 18 19.4989C18 23.0909 14.4169 26 9.99867 26C5.58046 26 2 23.0909 2 19.4989Z" fill="#FAFAFA"/>
</g>
</svg>
