<svg width="26" height="26" viewBox="0 0 26 26" fill="none" xmlns="http://www.w3.org/2000/svg">
<path fill-rule="evenodd" clip-rule="evenodd" d="M12.3664 2.59526C12.7793 2.46825 13.2209 2.46825 13.6339 2.59526L16.8687 3.58976C18.5558 4.10841 20.158 4.87083 21.6245 5.85284C22.7664 6.61659 22.2258 8.39651 20.8521 8.39651H5.14812C3.77446 8.39651 3.23387 6.61659 4.37462 5.85284C5.84145 4.87034 7.44404 4.10755 9.13154 3.58867L12.3664 2.59526ZM13.1572 4.14876C13.0549 4.11706 12.9454 4.11706 12.843 4.14876L9.60929 5.14326C8.33081 5.53593 7.10486 6.0827 5.95846 6.77151H20.0418C18.8954 6.0827 17.6694 5.53593 16.391 5.14326L13.1561 4.14876H13.1572Z" fill="black"/>
<path d="M4.604 22.7493C4.604 22.5339 4.68961 22.3272 4.84198 22.1748C4.99435 22.0225 5.20102 21.9368 5.4165 21.9368H20.5832C20.7987 21.9368 21.0053 22.0225 21.1577 22.1748C21.3101 22.3272 21.3957 22.5339 21.3957 22.7493C21.3957 22.9648 21.3101 23.1715 21.1577 23.3239C21.0053 23.4762 20.7987 23.5618 20.5832 23.5618H5.4165C5.20102 23.5618 4.99435 23.4762 4.84198 23.3239C4.68961 23.1715 4.604 22.9648 4.604 22.7493ZM6.77067 18.416C6.77067 18.6315 6.85627 18.8382 7.00865 18.9905C7.16102 19.1429 7.36768 19.2285 7.58317 19.2285C7.79866 19.2285 8.00532 19.1429 8.1577 18.9905C8.31007 18.8382 8.39567 18.6315 8.39567 18.416V11.916C8.39567 11.7005 8.31007 11.4939 8.1577 11.3415C8.00532 11.1891 7.79866 11.1035 7.58317 11.1035C7.36768 11.1035 7.16102 11.1891 7.00865 11.3415C6.85627 11.4939 6.77067 11.7005 6.77067 11.916V18.416ZM12.9998 19.2285C12.7843 19.2285 12.5777 19.1429 12.4253 18.9905C12.2729 18.8382 12.1873 18.6315 12.1873 18.416V11.916C12.1873 11.7005 12.2729 11.4939 12.4253 11.3415C12.5777 11.1891 12.7843 11.1035 12.9998 11.1035C13.2153 11.1035 13.422 11.1891 13.5744 11.3415C13.7267 11.4939 13.8123 11.7005 13.8123 11.916V18.416C13.8123 18.6315 13.7267 18.8382 13.5744 18.9905C13.422 19.1429 13.2153 19.2285 12.9998 19.2285ZM17.604 18.416C17.604 18.6315 17.6896 18.8382 17.842 18.9905C17.9944 19.1429 18.201 19.2285 18.4165 19.2285C18.632 19.2285 18.8387 19.1429 18.991 18.9905C19.1434 18.8382 19.229 18.6315 19.229 18.416V11.916C19.229 11.7005 19.1434 11.4939 18.991 11.3415C18.8387 11.1891 18.632 11.1035 18.4165 11.1035C18.201 11.1035 17.9944 11.1891 17.842 11.3415C17.6896 11.4939 17.604 11.7005 17.604 11.916V18.416Z" fill="black"/>
</svg>
