<svg width="24" height="24" viewBox="0 0 24 24" fill="none" xmlns="http://www.w3.org/2000/svg">
<path d="M4.28577 4.28566V21.6424C4.28569 21.754 4.31467 21.8638 4.36988 21.9608C4.42509 22.0578 4.50461 22.1388 4.60062 22.1958C4.69663 22.2527 4.80581 22.2837 4.91743 22.2856C5.02905 22.2876 5.13924 22.2604 5.23717 22.2068L11.9999 18.5169L18.7626 22.2068C18.8605 22.2604 18.9707 22.2876 19.0823 22.2856C19.1939 22.2837 19.3031 22.2527 19.3991 22.1958C19.4951 22.1388 19.5747 22.0578 19.6299 21.9608C19.6851 21.8638 19.7141 21.754 19.714 21.6424V4.28566C19.714 3.60369 19.4431 2.94966 18.9608 2.46743C18.4786 1.98521 17.8246 1.71429 17.1426 1.71429H6.85714C6.17517 1.71429 5.52113 1.98521 5.0389 2.46743C4.55668 2.94966 4.28577 3.60369 4.28577 4.28566Z"/>
</svg>
