<svg viewBox="0 0 20 20" fill="none" xmlns="http://www.w3.org/2000/svg">
<path fill-rule="evenodd" clip-rule="evenodd" d="M17.7556 1.7441C17.7556 1.33314 17.4206 1 17.0074 1C16.5942 1 16.2593 1.33314 16.2593 1.7441V3.23231H14.7629C14.3497 3.23231 14.0147 3.56545 14.0147 3.97641C14.0147 4.38736 14.3497 4.72051 14.7629 4.72051H16.2593V6.20871C16.2593 6.61967 16.5942 6.95281 17.0074 6.95281C17.4206 6.95281 17.7556 6.61967 17.7556 6.20871V4.72051H19.252C19.6652 4.72051 20.0001 4.38736 20.0001 3.97641C20.0001 3.56545 19.6652 3.23231 19.252 3.23231H17.7556V1.7441ZM1.49635 7.83892C1.49635 7.42783 1.83124 7.09482 2.24431 7.09482H5.23721C5.87006 7.09482 6.20727 7.25167 6.39156 7.43496C6.57585 7.61824 6.73356 7.95362 6.73356 8.58302V15.5658C6.28905 15.3645 5.77855 15.2799 5.23721 15.2799H2.24431C1.83124 15.2799 1.49635 14.9469 1.49635 14.5358V7.83892ZM7.44964 6.38264C7.46046 6.3934 7.47116 6.40425 7.48173 6.41518C7.4923 6.40425 7.503 6.3934 7.51382 6.38264C8.07771 5.82182 8.86275 5.60662 9.72625 5.60662H12.7192C13.9589 5.60662 14.9635 6.60619 14.9635 7.83892V16.7681C14.9635 18.001 13.9586 19.0004 12.7189 19.0004H2.24452C1.00491 19.0004 0 18.001 0 16.7681V7.83892C0 6.60619 1.00456 5.60662 2.24431 5.60662H5.23721C6.10071 5.60662 6.88576 5.82182 7.44964 6.38264ZM8.2299 15.5658V8.58302C8.2299 7.95362 8.38761 7.61824 8.5719 7.43496C8.75619 7.25167 9.0934 7.09482 9.72625 7.09482H12.7192C13.1322 7.09482 13.4671 7.42783 13.4671 7.83892V14.5358C13.4671 14.9469 13.1322 15.2799 12.7192 15.2799H9.72625C9.18491 15.2799 8.67441 15.3645 8.2299 15.5658ZM12.7192 16.7681C12.9814 16.7681 13.2332 16.7234 13.4671 16.6412V16.7681C13.4671 17.1791 13.1321 17.5122 12.7189 17.5122H8.33273C8.39511 17.3283 8.48021 17.1995 8.5719 17.1083C8.75619 16.925 9.0934 16.7681 9.72625 16.7681H12.7192ZM6.39156 17.1083C6.48325 17.1995 6.56835 17.3283 6.63073 17.5122H2.24452C1.83131 17.5122 1.49635 17.1791 1.49635 16.7681V16.6412C1.73028 16.7234 1.98203 16.7681 2.24431 16.7681H5.23721C5.87006 16.7681 6.20727 16.925 6.39156 17.1083Z" fill="#CFCFCF"/>
</svg>
