<svg width="26" height="26" viewBox="0 0 26 26" fill="none" xmlns="http://www.w3.org/2000/svg">
<path fill-rule="evenodd" clip-rule="evenodd" d="M7.5835 4.33268C7.29618 4.33268 7.02063 4.44682 6.81746 4.64998C6.6143 4.85315 6.50016 5.1287 6.50016 5.41602V20.6442L12.3705 16.4511C12.7472 16.1821 13.2532 16.1821 13.6298 16.4511L19.5002 20.6442V5.41602C19.5002 5.1287 19.386 4.85315 19.1829 4.64998C18.9797 4.44682 18.7041 4.33268 18.4168 4.33268H7.5835ZM5.2854 3.11792C5.89489 2.50843 6.72154 2.16602 7.5835 2.16602H18.4168C19.2788 2.16602 20.1054 2.50843 20.7149 3.11792C21.3244 3.72741 21.6668 4.55406 21.6668 5.41602V22.7493C21.6668 23.1552 21.44 23.5269 21.0792 23.7126C20.7184 23.8983 20.284 23.8668 19.9538 23.6309L13.0002 18.664L6.0465 23.6309C5.71629 23.8668 5.28194 23.8983 4.92112 23.7126C4.56029 23.5269 4.3335 23.1552 4.3335 22.7493V5.41602C4.3335 4.55406 4.67591 3.72741 5.2854 3.11792Z" fill="#FFA436"/>
</svg>
