<svg viewBox="0 0 18 19" fill="black" xmlns="http://www.w3.org/2000/svg">
<g clip-path="url(#clip0_1559_6407)">
<path fill-rule="evenodd" clip-rule="evenodd" d="M4.5 2.80887e-05C5.05228 2.80887e-05 5.5 0.447715 5.5 1V2H12.5V1C12.5 0.447715 12.9477 0 13.5 0C14.0523 0 14.5 0.447715 14.5 1V2C17 2 18 3.40733 18 6V15C18 17.7614 16.7614 19 14 19H4C1.23858 19 0 17.7614 0 15V6C0 3.40733 0.860107 2 3.5 2V0.999972C3.5 0.447687 3.94772 2.80887e-05 4.5 2.80887e-05ZM1 6H17C17 4.78505 16.3062 3 15 3H3C1.69378 3 1 4.5 1 6ZM17 7H1V15C1 17 2 18 4 18H14C16.5 18 17 16.5 17 15V7ZM4 11C4 10.4477 4.44772 10 5 10H7C7.55229 10 8 10.4477 8 11V13C8 13.5523 7.55229 14 7 14H5C4.44772 14 4 13.5523 4 13V11ZM7 11H5V13H7V11Z" fill="black"/>
</g>
<defs>
<clipPath id="clip0_1559_6407">
<rect width="18" height="19" fill="white"/>
</clipPath>
</defs>
</svg>
