<svg viewBox="0 0 24 24" fill="none" xmlns="http://www.w3.org/2000/svg">
<path fill-rule="evenodd" clip-rule="evenodd" d="M5.15164 5.15162C5.37667 4.92666 5.68184 4.80028 6.00004 4.80028C6.31823 4.80028 6.6234 4.92666 6.84844 5.15162L12 10.3032L17.1516 5.15162C17.2623 5.03701 17.3947 4.94559 17.5412 4.8827C17.6876 4.81981 17.845 4.78671 18.0044 4.78532C18.1637 4.78394 18.3217 4.8143 18.4692 4.87464C18.6167 4.93497 18.7506 5.02408 18.8633 5.13675C18.976 5.24942 19.0651 5.3834 19.1254 5.53088C19.1858 5.67835 19.2161 5.83637 19.2147 5.99571C19.2134 6.15504 19.1803 6.3125 19.1174 6.45891C19.0545 6.60531 18.963 6.73773 18.8484 6.84842L13.6968 12L18.8484 17.1516C19.067 17.3779 19.188 17.6811 19.1852 17.9957C19.1825 18.3103 19.0563 18.6113 18.8338 18.8338C18.6113 19.0563 18.3104 19.1825 17.9957 19.1852C17.6811 19.188 17.378 19.067 17.1516 18.8484L12 13.6968L6.84844 18.8484C6.62211 19.067 6.31899 19.188 6.00436 19.1852C5.68972 19.1825 5.38874 19.0563 5.16625 18.8338C4.94376 18.6113 4.81756 18.3103 4.81483 17.9957C4.81209 17.6811 4.93305 17.3779 5.15164 17.1516L10.3032 12L5.15164 6.84842C4.92667 6.62339 4.80029 6.31822 4.80029 6.00002C4.80029 5.68183 4.92667 5.37666 5.15164 5.15162Z" fill="black"/>
</svg>
