<svg viewBox="0 0 24 24" fill="none" xmlns="http://www.w3.org/2000/svg">
<path d="M19.983 17.841C19.8273 17.9973 19.708 18.186 19.6336 18.3937C19.5592 18.6014 19.5315 18.8229 19.5525 19.0425C19.6579 20.0589 19.8578 21.0632 20.1495 22.0425C18.057 21.558 16.779 20.997 16.1985 20.703C15.8692 20.5362 15.4901 20.4967 15.1335 20.592C14.1113 20.8645 13.0579 21.0017 12 21C6.006 21 1.5 16.7895 1.5 12C1.5 7.212 6.006 3 12 3C17.994 3 22.5 7.212 22.5 12C22.5 14.202 21.5745 16.245 19.983 17.841ZM20.7225 23.6985C21.0779 23.769 21.4344 23.8335 21.792 23.892C22.092 23.94 22.32 23.628 22.2015 23.349C22.0683 23.0349 21.9462 22.7162 21.8355 22.3935L21.831 22.3785C21.459 21.2985 21.156 20.0565 21.045 18.9C22.8855 17.055 24 14.64 24 12C24 6.201 18.627 1.5 12 1.5C5.373 1.5 0 6.201 0 12C0 17.799 5.373 22.5 12 22.5C13.1885 22.5016 14.3721 22.3473 15.5205 22.041C16.3005 22.4355 17.979 23.154 20.7225 23.6985V23.6985Z" fill="none"/>
</svg>
