<svg viewBox="0 0 20 20" fill="none" xmlns="http://www.w3.org/2000/svg">
<path fill-rule="evenodd" clip-rule="evenodd" d="M8.55556 4.6C8.15668 4.6 7.83333 4.90221 7.83333 5.275H12.1667C12.1667 4.90221 11.8433 4.6 11.4444 4.6H8.55556ZM13.6111 6.625H6.38889V13.375C6.38889 14.4934 7.35894 15.4 8.55556 15.4H11.4444C12.6411 15.4 13.6111 14.4934 13.6111 13.375V6.625ZM4.94444 6.625V13.375C4.94444 15.239 6.56119 16.75 8.55556 16.75H11.4444C13.4388 16.75 15.0556 15.239 15.0556 13.375V6.625H15.7778C16.1766 6.625 16.5 6.32279 16.5 5.95C16.5 5.57721 16.1766 5.275 15.7778 5.275H13.6111C13.6111 4.15662 12.6411 3.25 11.4444 3.25H8.55556C7.35894 3.25 6.38889 4.15662 6.38889 5.275H4.22222C3.82335 5.275 3.5 5.57721 3.5 5.95C3.5 6.32279 3.82335 6.625 4.22222 6.625H4.94444ZM8.55556 7.975C8.95443 7.975 9.27778 8.27721 9.27778 8.65V13.375C9.27778 13.7478 8.95443 14.05 8.55556 14.05C8.15668 14.05 7.83333 13.7478 7.83333 13.375V8.65C7.83333 8.27721 8.15668 7.975 8.55556 7.975ZM11.4444 7.975C11.8433 7.975 12.1667 8.27721 12.1667 8.65V13.375C12.1667 13.7478 11.8433 14.05 11.4444 14.05C11.0456 14.05 10.7222 13.7478 10.7222 13.375V8.65C10.7222 8.27721 11.0456 7.975 11.4444 7.975Z" fill="black"/>
</svg>
