<svg width="26" height="26" viewBox="0 0 26 26" fill="none" xmlns="http://www.w3.org/2000/svg">
<path fill-rule="evenodd" clip-rule="evenodd" d="M15.5835 16.7323C14.1232 17.8992 12.2714 18.4626 10.4086 18.3068C8.54584 18.151 6.81342 17.2879 5.56716 15.8946C4.32091 14.5014 3.65544 12.6838 3.70742 10.8153C3.75941 8.9467 4.5249 7.16897 5.84669 5.84718C7.16848 4.52539 8.94622 3.75989 10.8148 3.70791C12.6834 3.65592 14.5009 4.3214 15.8941 5.56765C17.2874 6.8139 18.1505 8.54633 18.3063 10.4091C18.4621 12.2719 17.8987 14.1236 16.7319 15.584L22.3175 21.1686C22.3973 21.243 22.4614 21.3327 22.5058 21.4323C22.5502 21.532 22.5741 21.6396 22.576 21.7487C22.5779 21.8578 22.5579 21.9662 22.517 22.0673C22.4761 22.1685 22.4153 22.2604 22.3381 22.3376C22.261 22.4147 22.1691 22.4755 22.0679 22.5164C21.9667 22.5573 21.8584 22.5773 21.7493 22.5754C21.6402 22.5735 21.5326 22.5496 21.4329 22.5052C21.3333 22.4608 21.2436 22.3968 21.1692 22.3169L15.5835 16.7323ZM6.9981 15.0402C6.20298 14.245 5.66144 13.2319 5.44191 12.129C5.22238 11.0261 5.33473 9.8829 5.76474 8.84383C6.19476 7.80477 6.92315 6.9165 7.85785 6.29129C8.79256 5.66607 9.89163 5.33197 11.0162 5.33122C12.1407 5.33046 13.2402 5.66308 14.1757 6.28703C15.1113 6.91099 15.8409 7.79828 16.2723 8.83676C16.7037 9.87525 16.8176 11.0183 16.5995 12.1215C16.3815 13.2247 15.8413 14.2385 15.0473 15.0348L15.0419 15.0402L15.0364 15.0445C13.9695 16.109 12.5236 16.7065 11.0164 16.7057C9.50918 16.7049 8.06394 16.1058 6.9981 15.0402Z" fill="black"/>
</svg>
