<svg width="26" height="26" viewBox="0 0 26 26" fill="none" xmlns="http://www.w3.org/2000/svg">
<path d="M0.270996 11.0658C0.270996 6.76715 4.39308 3.52148 9.1565 3.52148C12.946 3.52148 16.3065 5.56248 17.5415 8.55898C17.5536 8.5904 17.5582 8.62423 17.5549 8.65775C17.5515 8.69126 17.5403 8.72352 17.5222 8.75189C17.504 8.78027 17.4794 8.80398 17.4504 8.82109C17.4214 8.8382 17.3888 8.84824 17.3552 8.8504C16.9522 8.8829 16.5513 8.9414 16.157 9.02157C16.1078 9.03137 16.0568 9.02456 16.0119 9.00221C15.967 8.97985 15.9307 8.94322 15.9089 8.89807C14.8657 6.75415 12.3014 5.14648 9.1565 5.14648C5.00191 5.14648 1.896 7.92848 1.896 11.0658C1.896 12.7612 2.77783 14.3267 4.26091 15.4327C4.36212 15.5086 4.4442 15.6071 4.50062 15.7203C4.55704 15.8336 4.58625 15.9584 4.58591 16.0849V17.1032L6.264 16.6374C6.40982 16.597 6.56403 16.5981 6.70925 16.6407C7.37008 16.8346 8.07858 16.9516 8.81633 16.9797C8.87311 16.9819 8.92698 17.0054 8.96716 17.0456C9.00734 17.0857 9.03085 17.1396 9.033 17.1964C9.0525 17.659 9.11425 18.1064 9.21391 18.5376C9.21583 18.5463 9.2158 18.5553 9.21383 18.564C9.21186 18.5727 9.208 18.5809 9.20251 18.5879C9.19703 18.5949 9.19006 18.6007 9.18211 18.6047C9.17416 18.6087 9.16541 18.611 9.1565 18.6112C8.25326 18.6128 7.35369 18.4962 6.48066 18.2646L3.99225 18.9557C3.87151 18.9893 3.74464 18.9945 3.62156 18.9709C3.49848 18.9473 3.38253 18.8956 3.28276 18.8198C3.183 18.7439 3.10213 18.646 3.04649 18.5337C2.99084 18.4214 2.96192 18.2978 2.962 18.1725V16.4792C1.32616 15.1294 0.270996 13.2184 0.270996 11.0658Z" fill="black"/>
<path fill-rule="evenodd" clip-rule="evenodd" d="M18.1846 10.6797C22.2038 10.6797 25.7246 13.4227 25.7246 17.1017C25.7246 18.9217 24.8471 20.2921 23.4864 21.4361V22.7838C23.4865 22.909 23.4575 23.0325 23.402 23.1447C23.3464 23.2569 23.2656 23.3547 23.166 23.4305C23.0664 23.5063 22.9506 23.5581 22.8276 23.5818C22.7047 23.6055 22.5779 23.6004 22.4573 23.567L20.4184 23.0004C19.6905 23.1902 18.9412 23.2856 18.1889 23.2843C14.1698 23.2843 10.6489 20.5413 10.6489 16.8623C10.6489 13.1833 14.1643 10.6797 18.1846 10.6797ZM24.1039 16.8623C24.1039 14.3446 21.6003 12.0642 18.1889 12.0642C14.7786 12.0642 12.2739 14.3446 12.2739 16.8623C12.2739 19.3799 14.7786 21.6593 18.1889 21.6593C18.8659 21.6607 19.5396 21.5659 20.1898 21.3776C20.3354 21.3349 20.49 21.3338 20.6362 21.3744L21.8614 21.7145V21.0429C21.8617 20.9165 21.8914 20.792 21.9482 20.6792C22.005 20.5663 22.0873 20.4683 22.1886 20.3929C23.3954 19.4915 24.1039 18.2251 24.1039 16.8612V16.8623Z" fill="black"/>
</svg>
