<svg viewBox="0 0 20 20" fill="black" xmlns="http://www.w3.org/2000/svg">
<path fill-rule="evenodd" clip-rule="evenodd" d="M9 9.5C9 8.67157 9.67157 8 10.5 8C11.3284 8 12 8.67157 12 9.5C12 10.3284 11.3284 11 10.5 11C9.67157 11 9 10.3284 9 9.5Z" fill="black"/>
<path fill-rule="evenodd" clip-rule="evenodd" d="M9 3.5C9 2.67157 9.67157 2 10.5 2C11.3284 2 12 2.67157 12 3.5C12 4.32843 11.3284 5 10.5 5C9.67157 5 9 4.32843 9 3.5Z" fill="black"/>
<path fill-rule="evenodd" clip-rule="evenodd" d="M9 15.5C9 14.6716 9.67157 14 10.5 14C11.3284 14 12 14.6716 12 15.5C12 16.3284 11.3284 17 10.5 17C9.67157 17 9 16.3284 9 15.5Z" fill="black"/>
</svg>
