<svg width="14" height="14" viewBox="0 0 14 14" fill="none" stroke="#F56565" xmlns="http://www.w3.org/2000/svg">
<path fill-rule="evenodd" clip-rule="evenodd" d="M2 5.78833C2 4.21333 3.3825 3 5.00417 3C5.84008 3 6.57625 3.392 7.10417 3.8995C7.63208 3.392 8.36767 3 9.20417 3C10.8258 3 12.2083 4.21333 12.2083 5.78833C12.2083 6.8675 11.7481 7.816 11.1105 8.61867C10.4747 9.419 9.64167 10.0986 8.84483 10.651C8.53975 10.8622 8.23233 11.0564 7.95 11.1999C7.68517 11.3347 7.38125 11.4583 7.10417 11.4583C6.82708 11.4583 6.52317 11.3347 6.25833 11.1999C5.94863 11.0366 5.64991 10.8532 5.36408 10.651C4.56667 10.0986 3.73425 9.419 3.09783 8.61867C2.46025 7.816 2 6.8675 2 5.78833Z" stroke="#F56565" stroke-width="1.5"/>
</svg>
