<svg viewBox="0 0 13 13" xmlns="http://www.w3.org/2000/svg">
<path d="M1.76025 5.43292C1.76025 3.97042 3.044 2.84375 4.54984 2.84375C5.32605 2.84375 6.00963 3.20775 6.49984 3.679C6.99005 3.20775 7.67309 2.84375 8.44984 2.84375C9.95567 2.84375 11.2394 3.97042 11.2394 5.43292C11.2394 6.435 10.812 7.31575 10.22 8.06108C9.62959 8.80425 8.85609 9.43529 8.11617 9.94825C7.83288 10.1443 7.54742 10.3247 7.28525 10.458C7.03934 10.5831 6.75713 10.6979 6.49984 10.6979C6.24255 10.6979 5.96034 10.5831 5.71442 10.458C5.42684 10.3063 5.14945 10.136 4.88405 9.94825C4.14359 9.43529 3.37063 8.80425 2.77967 8.06108C2.18763 7.31575 1.76025 6.435 1.76025 5.43292ZM4.54984 3.65625C3.42317 3.65625 2.57275 4.485 2.57275 5.43292C2.57275 6.19288 2.89559 6.90083 3.41559 7.55517C3.93667 8.21058 4.63813 8.78963 5.34663 9.28038C5.61475 9.46617 5.86663 9.62379 6.0833 9.73429C6.31513 9.85238 6.44946 9.88542 6.49984 9.88542C6.55021 9.88542 6.68455 9.85238 6.91692 9.73375C7.172 9.59868 7.41807 9.44723 7.65359 9.28038C8.36155 8.78963 9.063 8.21113 9.58409 7.55517C10.1041 6.90083 10.4269 6.19288 10.4269 5.43292C10.4269 4.485 9.5765 3.65625 8.44984 3.65625C7.80309 3.65625 7.19859 4.04246 6.82213 4.53321C6.78419 4.58264 6.7354 4.62269 6.67951 4.65025C6.62363 4.67781 6.56215 4.69214 6.49984 4.69214C6.43753 4.69214 6.37605 4.67781 6.32016 4.65025C6.26428 4.62269 6.21548 4.58264 6.17755 4.53321C5.80109 4.04246 5.19713 3.65625 4.54984 3.65625Z" />
</svg>
