<svg viewBox="0 0 14 14" fill="none" xmlns="http://www.w3.org/2000/svg">
<path d="M5.33792 3.34375C3.83209 3.34375 2.54834 4.47042 2.54834 5.93292C2.54834 6.94204 3.02067 7.79138 3.64684 8.495C4.27138 9.19646 5.07684 9.78525 5.8043 10.2782L7.06042 11.1286C7.1276 11.174 7.20684 11.1983 7.28792 11.1983C7.36901 11.1983 7.44824 11.174 7.51542 11.1286L8.77155 10.2782C9.49955 9.78525 10.3045 9.19646 10.9285 8.495C11.5552 7.79138 12.0275 6.94204 12.0275 5.93292C12.0275 4.47042 10.7438 3.34375 9.23792 3.34375C8.46117 3.34375 7.77813 3.70775 7.28792 4.179C6.79772 3.70775 6.11413 3.34375 5.33792 3.34375Z" fill="none"/>
</svg>
