<svg width="13" height="13" viewBox="0 0 13 13" fill="none" xmlns="http://www.w3.org/2000/svg">
<path d="M6.5 2.48894C5.9098 1.94624 5.13728 1.64504 4.3355 1.64502C3.91113 1.64546 3.49103 1.72982 3.09938 1.89325C2.70774 2.05667 2.35228 2.29594 2.05346 2.59727C0.778919 3.87723 0.779461 5.87923 2.05454 7.15377L6.02604 11.1253C6.11813 11.2872 6.29579 11.3918 6.5 11.3918C6.58385 11.391 6.66634 11.3705 6.74085 11.332C6.81535 11.2935 6.87979 11.2381 6.929 11.1702L10.9455 7.15377C12.2205 5.87869 12.2205 3.87723 10.9444 2.5951C10.6457 2.29432 10.2905 2.05555 9.89927 1.8925C9.50801 1.72945 9.08838 1.64534 8.6645 1.64502C7.86274 1.64515 7.09026 1.94633 6.5 2.48894V2.48894ZM10.1785 3.36102C11.0251 4.21198 11.0256 5.54123 10.1795 6.38785L6.5 10.0674L2.82046 6.38785C1.97438 5.54123 1.97492 4.21198 2.81938 3.36319C3.23104 2.95369 3.76946 2.72835 4.3355 2.72835C4.90154 2.72835 5.43779 2.95369 5.84621 3.3621L6.11704 3.63294C6.1673 3.68328 6.227 3.72322 6.29271 3.75047C6.35842 3.77773 6.42886 3.79175 6.5 3.79175C6.57114 3.79175 6.64158 3.77773 6.70729 3.75047C6.77301 3.72322 6.8327 3.68328 6.88296 3.63294L7.15379 3.3621C7.97279 2.54473 9.36054 2.54689 10.1785 3.36102V3.36102Z" />
</svg>
