<svg width="45" height="45" viewBox="0 0 45 45" fill="none" xmlns="http://www.w3.org/2000/svg">
<path d="M12.3613 0.843135C10.7895 1.61039 9.31534 2.42806 7.86282 3.34707C7.54848 3.54942 7.23413 3.71802 7.15825 3.71802C7.08237 3.72645 6.46451 3.72645 5.78161 3.70959C4.37246 3.69273 3.87384 3.79388 3.54865 4.17329C3.32101 4.44309 3.08254 5.35364 3.0717 5.98599C3.06086 6.60991 2.81155 7.00617 1.9227 7.75656C0.817057 8.69244 0.383472 9.12244 0.199198 9.46812C-0.0609536 9.96557 -0.0717906 15.6483 0.1992 18.0849C0.296757 19.0545 0.426833 20.2518 0.470191 20.7408C0.52439 21.2298 0.665305 22.3849 0.795381 23.3124C0.914617 24.2398 1.14225 25.9851 1.30484 27.1908C1.82515 31.2547 1.98774 31.7943 2.80071 32.1737C3.25598 32.3929 4.63409 32.3761 6.4118 32.1316C7.12721 32.0388 7.19617 32.0294 7.26121 32.0294C7.39128 32.0294 7.66674 32.9086 7.86282 33.5797C8.02542 34.1362 8.19885 34.7011 8.24221 34.8444C8.29641 34.9793 8.45901 35.5948 8.61076 36.2103C9.13106 38.2507 8.96847 39.684 8.1013 40.974C7.64603 41.6569 7.55931 42.576 7.91702 43.2167C8.18801 43.7058 8.89259 44.2538 9.49961 44.4561C10.0741 44.6416 11.2556 44.6248 11.8735 44.414C12.5564 44.1863 13.4886 43.6552 13.8897 43.2589C15.1254 42.0616 16.4261 39.4142 17.8461 35.2323C18.1063 34.4819 18.2038 34.465 18.5724 35.0721C18.9843 35.755 20.6644 39.7009 20.762 40.1983C20.8054 40.4597 20.7512 40.8475 20.5994 41.4209C20.3176 42.4158 20.3501 43.1746 20.7078 43.7985C21.1631 44.5995 21.8243 44.9283 23.1034 44.9873C23.8296 45.021 24.0139 44.9957 24.5342 44.8103C26.1601 44.2369 28.1004 41.3281 29.4445 37.4581C29.5855 37.0366 29.8456 36.2946 30.019 35.7972C30.3442 34.8613 30.6803 34.3133 31.1464 33.9676C31.4174 33.7821 31.439 33.7737 32.1761 33.8748C33.336 34.035 35.2763 33.9423 36.4795 33.664C38.6366 33.1666 40.2842 32.3993 41.9643 31.0925C44.0889 29.44 44.9886 28.2005 44.9886 26.9443C44.9778 25.4351 43.1675 24.3137 41.1947 24.6004C40.3926 24.7184 39.5254 25.0894 38.1054 25.9072C37.455 26.2866 36.6529 26.7335 36.3386 26.9021C35.699 27.2394 34.6259 27.5851 34.3983 27.5176C34.2899 27.4839 33.4811 27.1269 33.4811 26.4609C33.1043 24.8698 32.5533 23.3124 31.8124 21.9809C30.2514 19.1757 29.4445 17.3683 26.5395 14.8726L25.6398 14.3246L25.5748 13.591C25.5206 13.0177 25.4339 10.9183 25.4014 9.22361C25.4014 9.13087 25.3038 8.97068 25.1846 8.8695C25.0003 8.71773 24.8377 8.68401 24.2307 8.68401C23.8296 8.68401 23.4394 8.65028 23.3744 8.61656C23.2768 8.56597 23.2226 8.07695 23.1684 6.905C23.1359 6.01128 23.06 5.00797 22.995 4.69601C22.8974 4.19013 22.8324 4.07213 22.4313 3.75173C21.6725 3.13625 20.8379 3.13625 19.2228 3.76017C18.1605 4.17331 17.2933 4.67071 16.4912 5.31992C15.96 5.75835 15.9058 5.77521 15.6457 5.64874C15.5156 5.58129 15.4614 5.12609 15.3747 2.98453L15.2663 0.404702L14.9628 0.202349C14.8002 0.0927423 14.5292 3.99398e-07 14.3666 3.99398e-07C14.1823 3.99398e-07 13.4127 0.328826 12.3613 0.843135ZM13.4236 2.2932C13.5428 2.61359 13.6187 4.82247 13.5103 5.14286L13.4127 5.43795L12.4263 5.51383C11.8843 5.55599 11.3207 5.56442 11.1798 5.53913C11.0388 5.5054 10.5185 5.25248 10.0199 4.97424C9.29366 4.55268 9.15274 4.43464 9.2503 4.3419C9.31534 4.27445 10.0416 3.85295 10.8546 3.39766C11.6784 2.9508 12.513 2.47025 12.719 2.34378C13.1742 2.05712 13.3152 2.0487 13.4236 2.2932ZM2.91995 9.01283C2.83323 9.12244 2.52972 9.1393 2.52972 9.03813C2.52972 9.0044 2.58392 8.92852 2.6598 8.8695C2.81155 8.75146 3.02834 8.8695 2.91995 9.01283ZM23.9922 10.5783C23.9814 10.6963 23.9705 12.0734 23.9597 13.8946L23.938 17.2165L23.6887 17.3683C23.2226 17.6718 22.5831 17.6634 20.6428 17.3598C18.5941 17.0395 17.9545 17.0142 17.25 17.2334C16.3286 17.5032 16.0034 17.9332 16.0793 18.7594C16.1552 19.6616 17.5968 20.7745 20.0899 21.8537C20.3609 21.9718 21.0438 22.2922 21.6075 22.562C22.1712 22.8402 22.8649 23.169 23.1359 23.2871C23.4069 23.4135 23.6887 23.5653 23.7537 23.6328C24.0789 23.9279 24.2849 22.3681 24.2524 25.7996C24.2415 27.5534 24.1982 28.152 24.0031 29.0373C23.7646 30.1586 23.5731 30.0929 23.3455 30.1098C22.7276 30.1688 21.9797 30.1688 19.5841 30.1014C18.0666 30.0508 16.1588 29.958 15.3567 29.8821C14.2727 29.781 13.373 29.7557 11.888 29.7894C9.655 29.84 8.31089 30.0086 6.13212 30.4808C5.40586 30.641 4.58205 30.8012 4.28938 30.8265C3.8016 30.877 3.76908 30.8686 3.60648 30.6325C3.14038 29.9159 2.94163 28.2953 2.15034 20.2349C2.11782 19.8892 2.02026 18.8775 1.93354 18.0006C1.69507 15.682 1.55415 10.6542 1.7601 10.5193C1.87934 10.4434 2.07445 10.4518 2.56223 10.553C3.11505 10.671 3.85215 10.6879 7.27748 10.6794C11.2448 10.6626 17.6619 10.5445 21.4774 10.4096C24.0898 10.3253 24.0356 10.3253 23.9922 10.5783Z" fill="black"/>
<path d="M12.0426 15.6387C11.9451 15.7151 11.7825 15.9335 11.6741 16.1409C11.5223 16.4576 11.5115 16.5777 11.6091 16.938C11.8584 17.7459 12.5629 17.8987 13.0074 17.2437C13.6144 16.3375 12.8339 15.0273 12.0426 15.6387Z" fill="black"/>
<path d="M5.64794 15.8572C5.14932 16.2393 5.0626 17.2001 5.49619 17.6259C5.82138 17.9643 6.12489 17.9753 6.40672 17.6586C6.8403 17.2001 6.82946 16.3485 6.39588 15.9336C6.12489 15.6825 5.89726 15.6607 5.64794 15.8572Z" fill="black"/>
<path d="M8.85479 20.7593C8.20441 20.9886 8.0635 21.3489 8.49708 21.6546C8.87647 21.9275 10.0146 21.8948 10.2639 21.6109C10.5458 21.2943 10.3507 20.9231 9.79784 20.7593C9.29922 20.6065 9.28838 20.6065 8.85479 20.7593Z" fill="black"/>
</svg>
