<svg width="24" height="17" viewBox="0 0 24 17" fill="none" xmlns="http://www.w3.org/2000/svg">
<path d="M9.86126 3.38611C9.86126 4.28416 9.47166 5.14543 8.77815 5.78045C8.08465 6.41547 7.14405 6.77222 6.16329 6.77222C5.18253 6.77222 4.24193 6.41547 3.54843 5.78045C2.85492 5.14543 2.46532 4.28416 2.46532 3.38611C2.46532 2.48806 2.85492 1.62679 3.54843 0.991769C4.24193 0.35675 5.18253 0 6.16329 0C7.14405 0 8.08465 0.35675 8.77815 0.991769C9.47166 1.62679 9.86126 2.48806 9.86126 3.38611V3.38611ZM19.7225 3.38611C19.7225 3.83078 19.6269 4.2711 19.441 4.68192C19.2552 5.09274 18.9828 5.46602 18.6394 5.78045C18.296 6.09488 17.8884 6.3443 17.4397 6.51447C16.991 6.68464 16.5102 6.77222 16.0246 6.77222C15.5389 6.77222 15.0581 6.68464 14.6094 6.51447C14.1607 6.3443 13.7531 6.09488 13.4097 5.78045C13.0663 5.46602 12.7939 5.09274 12.6081 4.68192C12.4222 4.2711 12.3266 3.83078 12.3266 3.38611C12.3266 2.48806 12.7162 1.62679 13.4097 0.991769C14.1032 0.35675 15.0438 0 16.0246 0C17.0053 0 17.9459 0.35675 18.6394 0.991769C19.3329 1.62679 19.7225 2.48806 19.7225 3.38611V3.38611ZM14.7056 15.8018C14.7623 15.4328 14.7919 15.0569 14.7919 14.6731C14.7947 12.8998 14.1432 11.1776 12.9429 9.78586C13.8798 9.29054 14.9426 9.02978 16.0245 9.02977C17.1064 9.02976 18.1692 9.29052 19.1061 9.78582C20.0431 10.2811 20.8211 10.9935 21.3621 11.8514C21.903 12.7093 22.1878 13.6825 22.1878 14.6731V15.8018H14.7056ZM6.16329 9.02963C7.7979 9.02963 9.36555 9.62421 10.5214 10.6826C11.6772 11.7409 12.3266 13.1764 12.3266 14.6731V15.8018H0V14.6731C0 13.1764 0.649345 11.7409 1.80519 10.6826C2.96103 9.62421 4.52868 9.02963 6.16329 9.02963V9.02963Z" fill="black"/>
</svg>
