<svg viewBox="0 0 17 17" fill="none" xmlns="http://www.w3.org/2000/svg">
<path fill-rule="evenodd" clip-rule="evenodd" d="M8.5 1.0625C6.52745 1.0625 4.6357 1.84609 3.24089 3.24089C1.84609 4.63569 1.0625 6.52745 1.0625 8.5C1.0625 10.4725 1.84609 12.3643 3.24089 13.7591C4.63569 15.1539 6.52745 15.9375 8.5 15.9375C10.4725 15.9375 12.3643 15.1539 13.7591 13.7591C15.1539 12.3643 15.9375 10.4725 15.9375 8.5C15.9375 6.52745 15.1539 4.63569 13.7591 3.24089C12.3643 1.84609 10.4725 1.0625 8.5 1.0625V1.0625ZM8.5 17C6.24566 17 4.08365 16.1045 2.48959 14.5104C0.895532 12.9163 -4.70087e-07 10.7543 -3.71547e-07 8.5C-2.73006e-07 6.24566 0.895533 4.08365 2.48959 2.48959C4.08365 0.895533 6.24566 -4.70087e-07 8.5 -3.71547e-07C10.7543 -2.73006e-07 12.9163 0.895533 14.5104 2.48959C16.1045 4.08365 17 6.24566 17 8.5C17 10.7543 16.1045 12.9163 14.5104 14.5104C12.9163 16.1045 10.7543 17 8.5 17V17ZM4.78125 9.03125C4.64035 9.03125 4.50523 8.97528 4.4056 8.87565C4.30597 8.77602 4.25 8.6409 4.25 8.5C4.25 8.3591 4.30597 8.22398 4.4056 8.12435C4.50523 8.02472 4.64035 7.96875 4.78125 7.96875L10.9363 7.96875L8.65512 5.68862C8.55537 5.58887 8.49933 5.45357 8.49933 5.3125C8.49933 5.17143 8.55537 5.03613 8.65512 4.93637C8.75488 4.83662 8.89018 4.78058 9.03125 4.78058C9.17232 4.78058 9.30762 4.83662 9.40737 4.93637L12.5949 8.12387C12.6443 8.17322 12.6836 8.23185 12.7104 8.29639C12.7372 8.36093 12.7509 8.43012 12.7509 8.5C12.7509 8.56988 12.7372 8.63907 12.7104 8.70361C12.6836 8.76815 12.6443 8.82678 12.5949 8.87612L9.40737 12.0636C9.30762 12.1634 9.17232 12.2194 9.03125 12.2194C8.89018 12.2194 8.75488 12.1634 8.65512 12.0636C8.55537 11.9639 8.49933 11.8286 8.49933 11.6875C8.49933 11.5464 8.55537 11.4111 8.65512 11.3114L10.9363 9.03125L4.78125 9.03125Z" />
</svg>
