<svg width="23" height="23" viewBox="0 0 23 23" fill="white" xmlns="http://www.w3.org/2000/svg">
<path fill-rule="evenodd" clip-rule="evenodd" d="M13.143 1C13.143 0.447715 12.6953 0 12.143 0H11.143C10.5907 0 10.143 0.447715 10.143 1V10.3263H1C0.447715 10.3263 0 10.774 0 11.3263V12.3263C0 12.8786 0.447715 13.3263 1 13.3263H10.143V22C10.143 22.5523 10.5907 23 11.143 23H12.143C12.6953 23 13.143 22.5523 13.143 22V13.3263H22C22.5523 13.3263 23 12.8786 23 12.3263V11.3263C23 10.774 22.5523 10.3263 22 10.3263H13.143V1Z" fill="white"/>
</svg>
