<svg width="20" height="20" viewBox="0 0 20 20" fill="none" xmlns="http://www.w3.org/2000/svg">
<path fill-rule="evenodd" clip-rule="evenodd" d="M11.9777 3.47971C12.8075 2.64999 14.1527 2.64999 14.9824 3.47971L16.5204 5.01764C17.3501 5.84736 17.3501 7.1926 16.5204 8.02232L11.148 13.3947C11.0152 13.5275 10.8351 13.6021 10.6472 13.6021H7.10619C6.71506 13.6021 6.39798 13.285 6.39798 12.8939V9.35282C6.39798 9.16499 6.4726 8.98486 6.60541 8.85204L11.9777 3.47971ZM13.9809 4.48127C13.7043 4.2047 13.2559 4.2047 12.9793 4.48127L12.357 5.10356L14.8965 7.64305L15.5188 7.02076C15.7954 6.74419 15.7954 6.29578 15.5188 6.0192L13.9809 4.48127ZM13.8949 8.64461L11.3555 6.10512L7.8144 9.64617V12.1857H10.3539L13.8949 8.64461ZM6.39798 4.39535C5.22458 4.39535 4.27335 5.34658 4.27335 6.51998V13.6021C4.27335 14.7755 5.22458 15.7267 6.39798 15.7267H13.4801C14.6535 15.7267 15.6047 14.7755 15.6047 13.6021V11.4775C15.6047 11.0863 15.9218 10.7692 16.3129 10.7692C16.7041 10.7692 17.0211 11.0863 17.0211 11.4775V13.6021C17.0211 15.5578 15.4358 17.1431 13.4801 17.1431H6.39798C4.44232 17.1431 2.85693 15.5578 2.85693 13.6021V6.51998C2.85693 4.56431 4.44232 2.97893 6.39798 2.97893H8.52261C8.91375 2.97893 9.23083 3.29601 9.23083 3.68714C9.23083 4.07828 8.91375 4.39535 8.52261 4.39535H6.39798Z" fill="#2D2D2D"/>
</svg>
