<svg viewBox="0 0 20 20" fill="none" xmlns="http://www.w3.org/2000/svg">
<path fill-rule="evenodd" clip-rule="evenodd" d="M12.7691 0.871206C13.9307 -0.290401 15.8141 -0.290403 16.9757 0.871206L19.1288 3.02431C20.2904 4.18592 20.2904 6.06925 19.1288 7.23086L11.6075 14.7521C11.4216 14.9381 11.1694 15.0425 10.9064 15.0425H5.94897C5.40138 15.0425 4.95747 14.5986 4.95747 14.051V9.09356C4.95747 8.8306 5.06193 8.57841 5.24787 8.39247L12.7691 0.871206ZM15.5735 2.27339C15.1863 1.88619 14.5585 1.88619 14.1713 2.27339L13.3001 3.1446L16.8554 6.69988L17.7266 5.82868C18.1138 5.44147 18.1138 4.81369 17.7266 4.42649L15.5735 2.27339ZM15.4532 8.10207L11.8979 4.54678L6.94046 9.50425V13.0595H10.4957L15.4532 8.10207ZM4.95747 2.1531C3.31471 2.1531 1.98299 3.48482 1.98299 5.12758V15.0425C1.98299 16.6853 3.31471 18.017 4.95747 18.017H14.8724C16.5152 18.017 17.8469 16.6853 17.8469 15.0425V12.068C17.8469 11.5205 18.2908 11.0765 18.8384 11.0765C19.386 11.0765 19.8299 11.5205 19.8299 12.068V15.0425C19.8299 17.7805 17.6103 20 14.8724 20H4.95747C2.21954 20 0 17.7805 0 15.0425V5.12758C0 2.38965 2.21954 0.170113 4.95747 0.170113H7.93195C8.47954 0.170113 8.92345 0.61402 8.92345 1.16161C8.92345 1.70919 8.47954 2.1531 7.93195 2.1531H4.95747Z" fill="#2D2D2D"/>
</svg>
