<svg width="26" height="26" viewBox="0 0 26 26" fill="none" xmlns="http://www.w3.org/2000/svg">
<path fill-rule="evenodd" clip-rule="evenodd" d="M8.39567 8.12565C8.39567 7.52102 8.51476 6.92232 8.74614 6.36371C8.97752 5.80511 9.31666 5.29755 9.7442 4.87001C10.1717 4.44248 10.6793 4.10334 11.2379 3.87196C11.7965 3.64057 12.3952 3.52148 12.9998 3.52148C13.6045 3.52148 14.2032 3.64057 14.7618 3.87196C15.3204 4.10334 15.8279 4.44248 16.2555 4.87001C16.683 5.29755 17.0222 5.80511 17.2535 6.36371C17.4849 6.92232 17.604 7.52102 17.604 8.12565C17.604 9.34675 17.1189 10.5178 16.2555 11.3813C15.392 12.2447 14.2209 12.7298 12.9998 12.7298C11.7787 12.7298 10.6076 12.2447 9.7442 11.3813C8.88075 10.5178 8.39567 9.34675 8.39567 8.12565ZM12.9998 5.14648C12.2097 5.14648 11.4519 5.46036 10.8932 6.01906C10.3345 6.57776 10.0207 7.33553 10.0207 8.12565C10.0207 8.91578 10.3345 9.67354 10.8932 10.2322C11.4519 10.7909 12.2097 11.1048 12.9998 11.1048C13.79 11.1048 14.5477 10.7909 15.1064 10.2322C15.6651 9.67354 15.979 8.91578 15.979 8.12565C15.979 7.33553 15.6651 6.57776 15.1064 6.01906C14.5477 5.46036 13.79 5.14648 12.9998 5.14648ZM8.6665 15.9798C8.02004 15.9798 7.40005 16.2366 6.94293 16.6937C6.48581 17.1509 6.229 17.7709 6.229 18.4173V19.7043C6.229 19.7238 6.24309 19.7412 6.26259 19.7444C10.7248 20.4724 15.2759 20.4724 19.7371 19.7444C19.7466 19.7428 19.7552 19.7379 19.7613 19.7306C19.7675 19.7232 19.7708 19.7139 19.7707 19.7043V18.4173C19.7707 17.7709 19.5139 17.1509 19.0567 16.6937C18.5996 16.2366 17.9796 15.9798 17.3332 15.9798H16.9648C16.9358 15.9796 16.9069 15.984 16.8793 15.9928L15.9422 16.2994C14.0303 16.9236 11.9694 16.9236 10.0575 16.2994L9.11934 15.9928C9.09237 15.9842 9.06423 15.9798 9.03592 15.9798H8.6665ZM4.604 18.4173C4.604 17.3399 5.03202 16.3066 5.79388 15.5447C6.55575 14.7828 7.58906 14.3548 8.6665 14.3548H9.03484C9.23525 14.3548 9.43459 14.3873 9.62417 14.448L10.5623 14.7546C12.1462 15.2716 13.8535 15.2716 15.4373 14.7546L16.3755 14.448C16.5651 14.3862 16.7644 14.3548 16.9638 14.3548H17.3332C18.4106 14.3548 19.4439 14.7828 20.2058 15.5447C20.9677 16.3066 21.3957 17.3399 21.3957 18.4173V19.7043C21.3957 20.5212 20.8042 21.2167 19.9982 21.3477C15.3633 22.1044 10.6364 22.1044 6.0015 21.3477C5.61142 21.2842 5.25665 21.084 5.00062 20.7829C4.7446 20.4819 4.60401 20.0995 4.604 19.7043V18.4173Z" fill="black"/>
</svg>
