<svg width="20" height="20" viewBox="0 0 26 26" xmlns="http://www.w3.org/2000/svg">
<path fill-rule="evenodd" clip-rule="evenodd" d="M11.9165 4.33268C7.72834 4.33268 4.33317 7.72786 4.33317 11.916C4.33317 16.1042 7.72834 19.4993 11.9165 19.4993C16.1047 19.4993 19.4998 16.1042 19.4998 11.916C19.4998 7.72786 16.1047 4.33268 11.9165 4.33268ZM2.1665 11.916C2.1665 6.53124 6.53173 2.16602 11.9165 2.16602C17.3013 2.16602 21.6665 6.53124 21.6665 11.916C21.6665 17.3008 17.3013 21.666 11.9165 21.666C6.53173 21.666 2.1665 17.3008 2.1665 11.916Z"/>
<path fill-rule="evenodd" clip-rule="evenodd" d="M17.2714 17.2724C17.6945 16.8493 18.3804 16.8493 18.8035 17.2724L23.516 21.9849C23.939 22.4079 23.939 23.0939 23.516 23.5169C23.0929 23.94 22.407 23.94 21.9839 23.5169L17.2714 18.8044C16.8483 18.3814 16.8483 17.6954 17.2714 17.2724Z"/>
</svg>
