<svg width="15" height="15" viewBox="0 0 15 15" fill="none" xmlns="http://www.w3.org/2000/svg">
<path fill-rule="evenodd" clip-rule="evenodd" d="M1.54299 4.85576C1.58653 4.81211 1.63826 4.77748 1.6952 4.75385C1.75215 4.73022 1.8132 4.71805 1.87486 4.71805C1.93652 4.71805 1.99757 4.73022 2.05452 4.75385C2.11147 4.77748 2.16319 4.81211 2.20674 4.85576L7.49986 10.1498L12.793 4.85576C12.881 4.76775 13.0004 4.7183 13.1249 4.7183C13.2493 4.7183 13.3687 4.76775 13.4567 4.85576C13.5448 4.94378 13.5942 5.06316 13.5942 5.18764C13.5942 5.31212 13.5448 5.4315 13.4567 5.51951L7.83174 11.1445C7.78819 11.1882 7.73647 11.2228 7.67952 11.2464C7.62257 11.2701 7.56152 11.2822 7.49986 11.2822C7.4382 11.2822 7.37715 11.2701 7.32021 11.2464C7.26326 11.2228 7.21153 11.1882 7.16799 11.1445L1.54299 5.51951C1.49933 5.47597 1.4647 5.42424 1.44107 5.3673C1.41744 5.31035 1.40527 5.2493 1.40527 5.18764C1.40527 5.12598 1.41744 5.06493 1.44107 5.00798C1.4647 4.95103 1.49933 4.89931 1.54299 4.85576V4.85576Z" fill="black"/>
</svg>
