<svg width="20" height="20" viewBox="0 0 20 20" fill="none" xmlns="http://www.w3.org/2000/svg">
<path fill-rule="evenodd" clip-rule="evenodd" d="M10.5383 3.57588C11.3241 2.81689 12.3766 2.39691 13.4691 2.40641C14.5616 2.4159 15.6066 2.8541 16.3792 3.62664C17.1517 4.39917 17.5899 5.44422 17.5994 6.53671C17.6089 7.6292 17.1889 8.68171 16.4299 9.46755L16.4215 9.47616L14.3382 11.5594C13.9158 11.982 13.4075 12.3087 12.8477 12.5176C12.2879 12.7264 11.6897 12.8124 11.0938 12.7697C10.4978 12.727 9.91802 12.5566 9.39369 12.2702C8.86937 11.9837 8.41278 11.5878 8.0549 11.1094C7.82518 10.8023 7.88791 10.3671 8.19503 10.1374C8.50215 9.90763 8.93735 9.97037 9.16708 10.2775C9.40566 10.5964 9.71005 10.8604 10.0596 11.0513C10.4092 11.2423 10.7957 11.3559 11.193 11.3843C11.5903 11.4128 11.9891 11.3555 12.3623 11.2163C12.7355 11.077 13.0744 10.8592 13.356 10.5775L13.3561 10.5774L15.4349 8.49857C15.9384 7.97512 16.2169 7.2752 16.2106 6.54878C16.2042 5.82046 15.9121 5.12375 15.3971 4.60873C14.8821 4.09371 14.1854 3.80157 13.457 3.79524C12.7303 3.78893 12.0301 4.06768 11.5066 4.57159L10.3159 5.75536C10.0439 6.02577 9.6042 6.02449 9.33379 5.7525C9.06339 5.48051 9.06467 5.04082 9.33665 4.77041L10.5311 3.58291L10.5383 3.57588Z" fill="black"/>
<path fill-rule="evenodd" clip-rule="evenodd" d="M7.15227 7.48152C7.71207 7.2727 8.31023 7.18671 8.90618 7.2294C9.50214 7.27208 10.0819 7.44243 10.6063 7.72889C11.1306 8.01535 11.5872 8.41123 11.9451 8.88967C12.1748 9.19679 12.112 9.63199 11.8049 9.86172C11.4978 10.0914 11.0626 10.0287 10.8329 9.72159C10.5943 9.40263 10.2899 9.13871 9.94036 8.94773C9.59081 8.75676 9.20427 8.64319 8.80697 8.61474C8.40967 8.58628 8.01089 8.64361 7.63769 8.78282C7.2645 8.92203 6.9256 9.13988 6.644 9.42159L4.56508 11.5005C4.06158 12.024 3.78307 12.7239 3.78938 13.4503C3.79571 14.1786 4.08785 14.8753 4.60287 15.3903C5.11789 15.9054 5.8146 16.1975 6.54292 16.2038C7.26934 16.2101 7.96925 15.9316 8.4927 15.4281L9.6757 14.2451C9.9469 13.9739 10.3866 13.9739 10.6578 14.2451C10.929 14.5163 10.929 14.956 10.6578 15.2272L9.4703 16.4147L9.46169 16.4232C8.67585 17.1822 7.62334 17.6022 6.53085 17.5927C5.43836 17.5832 4.39331 17.145 3.62078 16.3724C2.84825 15.5999 2.41004 14.5549 2.40055 13.4624C2.39105 12.3699 2.81103 11.3174 3.57002 10.5315L3.57848 10.5229L5.66173 8.43967C5.66176 8.43964 5.6617 8.4397 5.66173 8.43967C6.08411 8.01716 6.59251 7.69033 7.15227 7.48152Z" fill="black"/>
</svg>
