<svg width="19" height="19" viewBox="0 0 19 19" fill="none" xmlns="http://www.w3.org/2000/svg">
<path fill-rule="evenodd" clip-rule="evenodd" d="M2.37504 11.0833C2.81227 11.0833 3.16671 11.4377 3.16671 11.8749V15.0416C3.16671 15.2515 3.25011 15.4529 3.39858 15.6014C3.54705 15.7498 3.74841 15.8333 3.95837 15.8333H15.0417C15.2517 15.8333 15.453 15.7498 15.6015 15.6014C15.75 15.4529 15.8334 15.2515 15.8334 15.0416V11.8749C15.8334 11.4377 16.1878 11.0833 16.625 11.0833C17.0623 11.0833 17.4167 11.4377 17.4167 11.8749V15.0416C17.4167 15.6715 17.1665 16.2756 16.7211 16.721C16.2757 17.1664 15.6716 17.4166 15.0417 17.4166H3.95837C3.32848 17.4166 2.72439 17.1664 2.279 16.721C1.8336 16.2756 1.58337 15.6715 1.58337 15.0416V11.8749C1.58337 11.4377 1.93782 11.0833 2.37504 11.0833Z" fill="black"/>
<path fill-rule="evenodd" clip-rule="evenodd" d="M8.94021 1.81513C9.24937 1.50596 9.75063 1.50596 10.0598 1.81513L14.0181 5.77346C14.3273 6.08262 14.3273 6.58388 14.0181 6.89304C13.709 7.20221 13.2077 7.20221 12.8985 6.89304L9.5 3.4945L6.10146 6.89304C5.79229 7.20221 5.29104 7.20221 4.98187 6.89304C4.67271 6.58388 4.67271 6.08262 4.98187 5.77346L8.94021 1.81513Z" fill="black"/>
<path fill-rule="evenodd" clip-rule="evenodd" d="M9.50004 1.58325C9.93727 1.58325 10.2917 1.93769 10.2917 2.37492V11.8749C10.2917 12.3121 9.93727 12.6666 9.50004 12.6666C9.06282 12.6666 8.70837 12.3121 8.70837 11.8749V2.37492C8.70837 1.93769 9.06282 1.58325 9.50004 1.58325Z" fill="black"/>
</svg>
