<svg viewBox="0 0 12 12" fill="none" xmlns="http://www.w3.org/2000/svg">
<path d="M6 0C2.69163 0 0 2.69163 0 6C0 9.30837 2.69163 12 6 12C9.30837 12 12 9.30837 12 6C12 2.69163 9.30837 0 6 0ZM6 9.22817C5.8859 9.22817 5.77435 9.19434 5.67948 9.13094C5.5846 9.06755 5.51066 8.97745 5.46699 8.87203C5.42333 8.76661 5.4119 8.65061 5.43416 8.5387C5.45642 8.42679 5.51137 8.32399 5.59205 8.2433C5.67274 8.16262 5.77554 8.10767 5.88745 8.08541C5.99936 8.06315 6.11536 8.07458 6.22078 8.11824C6.3262 8.16191 6.4163 8.23585 6.47969 8.33073C6.54309 8.4256 6.57692 8.53715 6.57692 8.65125C6.57692 8.80426 6.51614 8.951 6.40795 9.0592C6.29975 9.16739 6.15301 9.22817 6 9.22817ZM6.62654 3.42577L6.46096 6.945C6.46096 7.06741 6.41234 7.1848 6.32578 7.27136C6.23922 7.35791 6.12183 7.40654 5.99942 7.40654C5.87702 7.40654 5.75962 7.35791 5.67307 7.27136C5.58651 7.1848 5.53788 7.06741 5.53788 6.945L5.37231 3.4275V3.42606C5.36868 3.34152 5.3822 3.25712 5.41205 3.17794C5.4419 3.09876 5.48746 3.02644 5.546 2.96534C5.60454 2.90424 5.67483 2.85561 5.75266 2.82239C5.83048 2.78917 5.91423 2.77205 5.99885 2.77205C6.08346 2.77205 6.16721 2.78917 6.24503 2.82239C6.32286 2.85561 6.39316 2.90424 6.45169 2.96534C6.51023 3.02644 6.55579 3.09876 6.58565 3.17794C6.6155 3.25712 6.62901 3.34152 6.62538 3.42606L6.62654 3.42577Z" fill="#F56565"/>
</svg>
