<svg width="21" height="21" viewBox="0 0 21 21" fill="none" xmlns="http://www.w3.org/2000/svg">
<path fill-rule="evenodd" clip-rule="evenodd" d="M4.89625 4.91667C4.43617 4.91667 4.06315 5.28961 4.06315 5.75V13.25C4.06315 13.7104 4.43617 14.0833 4.89625 14.0833H8.22982C8.83277 14.0833 9.40138 14.1781 9.89648 14.4035V6.58333C9.89648 5.87845 9.72083 5.50286 9.51556 5.29759C9.3103 5.09232 8.9347 4.91667 8.22982 4.91667H4.89625ZM10.7298 4.15552C10.718 4.14328 10.7061 4.13114 10.6941 4.11908C10.066 3.49101 9.1916 3.25 8.22982 3.25H4.89625C3.51539 3.25 2.39648 4.36944 2.39648 5.75V15.75C2.39648 17.1307 3.51577 18.25 4.89648 18.25H16.5632C17.9439 18.25 19.0632 17.1307 19.0632 15.75V5.75C19.0632 4.36944 17.9442 3.25 16.5634 3.25H13.2298C12.268 3.25 11.3936 3.49101 10.7656 4.11908C10.7535 4.13114 10.7416 4.14328 10.7298 4.15552ZM11.5632 6.58333V14.4035C12.0583 14.1781 12.6269 14.0833 13.2298 14.0833H16.5634C17.0235 14.0833 17.3965 13.7104 17.3965 13.25V5.75C17.3965 5.28961 17.0235 4.91667 16.5634 4.91667H13.2298C12.5249 4.91667 12.1493 5.09232 11.9441 5.29759C11.7388 5.50286 11.5632 5.87845 11.5632 6.58333ZM17.3965 15.6078C17.1359 15.6999 16.8555 15.75 16.5634 15.75H13.2298C12.5249 15.75 12.1493 15.9257 11.9441 16.1309C11.842 16.233 11.7472 16.3773 11.6777 16.5833H16.5632C17.0234 16.5833 17.3965 16.2102 17.3965 15.75V15.6078ZM9.78195 16.5833C9.71248 16.3773 9.61768 16.233 9.51556 16.1309C9.3103 15.9257 8.9347 15.75 8.22982 15.75H4.89625C4.60412 15.75 4.32372 15.6999 4.06315 15.6078V15.75C4.06315 16.2102 4.43625 16.5833 4.89648 16.5833H9.78195Z" fill="black"/>
</svg>
