<svg width="13" height="12" viewBox="0 0 13 12" fill="none" xmlns="http://www.w3.org/2000/svg">
<path d="M0.150391 1.94415C0.150391 1.58225 0.308668 1.23517 0.590405 0.979261C0.872141 0.723356 1.25426 0.57959 1.65269 0.57959L10.6665 0.57959C11.0649 0.57959 11.4471 0.723356 11.7288 0.979261C12.0105 1.23517 12.1688 1.58225 12.1688 1.94415V7.4024C12.1688 7.7643 12.0105 8.11138 11.7288 8.36729C11.4471 8.62319 11.0649 8.76696 10.6665 8.76696H8.78863C8.67201 8.76696 8.557 8.79162 8.4527 8.83899C8.3484 8.88636 8.25767 8.95513 8.18771 9.03987L6.76052 10.7681C6.69055 10.8528 6.59982 10.9216 6.49552 10.969C6.39122 11.0163 6.27621 11.041 6.1596 11.041C6.04299 11.041 5.92798 11.0163 5.82367 10.969C5.71937 10.9216 5.62865 10.8528 5.55868 10.7681L4.13149 9.03987C4.06152 8.95513 3.9708 8.88636 3.8665 8.83899C3.76219 8.79162 3.64718 8.76696 3.53057 8.76696H1.65269C1.25426 8.76696 0.872141 8.62319 0.590405 8.36729C0.308668 8.11138 0.150391 7.7643 0.150391 7.4024V1.94415ZM3.90615 4.67327C3.90615 4.49232 3.82701 4.31878 3.68614 4.19083C3.54527 4.06288 3.35421 3.99099 3.15499 3.99099C2.95578 3.99099 2.76472 4.06288 2.62385 4.19083C2.48298 4.31878 2.40384 4.49232 2.40384 4.67327C2.40384 4.85423 2.48298 5.02777 2.62385 5.15572C2.76472 5.28367 2.95578 5.35555 3.15499 5.35555C3.35421 5.35555 3.54527 5.28367 3.68614 5.15572C3.82701 5.02777 3.90615 4.85423 3.90615 4.67327ZM6.91075 4.67327C6.91075 4.49232 6.83161 4.31878 6.69074 4.19083C6.54987 4.06288 6.35882 3.99099 6.1596 3.99099C5.96038 3.99099 5.76932 4.06288 5.62845 4.19083C5.48759 4.31878 5.40845 4.49232 5.40845 4.67327C5.40845 4.85423 5.48759 5.02777 5.62845 5.15572C5.76932 5.28367 5.96038 5.35555 6.1596 5.35555C6.35882 5.35555 6.54987 5.28367 6.69074 5.15572C6.83161 5.02777 6.91075 4.85423 6.91075 4.67327ZM9.1642 5.35555C9.36342 5.35555 9.55448 5.28367 9.69535 5.15572C9.83621 5.02777 9.91535 4.85423 9.91535 4.67327C9.91535 4.49232 9.83621 4.31878 9.69535 4.19083C9.55448 4.06288 9.36342 3.99099 9.1642 3.99099C8.96499 3.99099 8.77393 4.06288 8.63306 4.19083C8.49219 4.31878 8.41305 4.49232 8.41305 4.67327C8.41305 4.85423 8.49219 5.02777 8.63306 5.15572C8.77393 5.28367 8.96499 5.35555 9.1642 5.35555V5.35555Z" fill="black"/>
</svg>
