<svg viewBox="0 0 20 20" fill="none" xmlns="http://www.w3.org/2000/svg">
<path d="M7.9649 9.83825C8.90855 9.83825 9.60461 9.14219 9.60461 8.19854C9.60461 7.25489 8.90855 6.55884 7.9649 6.55884C7.02125 6.55884 6.3252 7.25489 6.3252 8.19854C6.3252 9.14219 7.02043 9.83825 7.9649 9.83825Z" fill="black"/>
<path d="M16.397 3.27942H3.27935C2.37506 3.27942 1.63965 3.96892 1.63965 4.81664V14.8598C1.63965 15.7076 2.37506 16.3971 3.27935 16.3971H16.397C17.3013 16.3971 18.0367 15.7076 18.0367 14.8598V4.81664C18.0367 3.96892 17.3013 3.27942 16.397 3.27942ZM16.397 14.7574L3.27935 14.7483V4.91912L16.397 4.92814V14.7574Z" fill="black"/>
<path d="M11.4778 7.37866H14.7572V9.01837H11.4778V7.37866ZM12.2976 10.6581H14.7572V12.2978H12.2976V10.6581ZM11.0105 12.7372C11.0105 11.6107 9.63638 10.4531 7.9647 10.4531C6.29302 10.4531 4.91895 11.6107 4.91895 12.7372V13.1176H11.0105V12.7372Z" fill="black"/>
</svg>
