<svg width="20" height="20" viewBox="0 0 20 20" fill="none" xmlns="http://www.w3.org/2000/svg">
<path fill-rule="evenodd" clip-rule="evenodd" d="M14.1926 2.05764C14.2508 2.1157 14.297 2.18467 14.3285 2.2606C14.36 2.33653 14.3763 2.41793 14.3763 2.50014C14.3763 2.58235 14.36 2.66375 14.3285 2.73968C14.297 2.81561 14.2508 2.88458 14.1926 2.94264L7.13389 10.0001L14.1926 17.0576C14.31 17.175 14.3759 17.3342 14.3759 17.5001C14.3759 17.6661 14.31 17.8253 14.1926 17.9426C14.0753 18.06 13.9161 18.1259 13.7501 18.1259C13.5842 18.1259 13.425 18.06 13.3076 17.9426L5.80764 10.4426C5.74944 10.3846 5.70326 10.3156 5.67175 10.2397C5.64024 10.1638 5.62402 10.0823 5.62402 10.0001C5.62402 9.91793 5.64024 9.83653 5.67175 9.7606C5.70326 9.68467 5.74944 9.6157 5.80764 9.55764L13.3076 2.05764C13.3657 1.99944 13.4347 1.95326 13.5106 1.92175C13.5865 1.89024 13.6679 1.87402 13.7501 1.87402C13.8323 1.87402 13.9137 1.89024 13.9897 1.92175C14.0656 1.95326 14.1346 1.99944 14.1926 2.05764V2.05764Z" fill="black"/>
</svg>
