<svg width="31" height="31" viewBox="0 0 31 31" fill="none" xmlns="http://www.w3.org/2000/svg">
<path fill-rule="evenodd" clip-rule="evenodd" d="M8.77899 8.77895C8.77899 5.31577 11.5865 2.5083 15.0496 2.5083C18.5128 2.5083 21.3203 5.31577 21.3203 8.77895V10.5553C23.5345 11.5228 25.0827 13.7312 25.0827 16.3037V21.3203C25.0827 24.7834 22.2752 27.5909 18.812 27.5909H11.2873C7.82407 27.5909 5.0166 24.7834 5.0166 21.3203V16.3037C5.0166 13.7312 6.5648 11.5228 8.77899 10.5553V8.77895ZM11.2873 10.0331H18.812V8.77895C18.812 6.70104 17.1276 5.01656 15.0496 5.01656C12.9717 5.01656 11.2873 6.70104 11.2873 8.77895V10.0331ZM11.2873 12.5413C10.9605 12.5413 10.6453 12.5827 10.3457 12.6598C8.72271 13.0775 7.52486 14.5523 7.52486 16.3037V21.3203C7.52486 23.3982 9.20934 25.0826 11.2873 25.0826H18.812C20.8899 25.0826 22.5744 23.3982 22.5744 21.3203V16.3037C22.5744 14.5523 21.3766 13.0775 19.7536 12.6598C19.454 12.5827 19.1388 12.5413 18.812 12.5413H11.2873ZM15.0496 16.3037C15.7423 16.3037 16.3038 16.8652 16.3038 17.5579V20.0661C16.3038 20.7588 15.7423 21.3203 15.0496 21.3203C14.357 21.3203 13.7955 20.7588 13.7955 20.0661V17.5579C13.7955 16.8652 14.357 16.3037 15.0496 16.3037Z" fill="black"/>
</svg>
