<svg viewBox="0 0 24 24" fill="none" xmlns="http://www.w3.org/2000/svg">
<path d="M11.625 7.25C12.5188 7.25 13.25 6.51875 13.25 5.625C13.25 4.73125 12.5188 4 11.625 4C10.7312 4 10 4.73125 10 5.625C10 6.51875 10.7312 7.25 11.625 7.25ZM11.625 10.875C10.7312 10.875 10 11.6062 10 12.5C10 13.3938 10.7312 14.125 11.625 14.125C12.5188 14.125 13.25 13.3938 13.25 12.5C13.25 11.6062 12.5188 10.875 11.625 10.875ZM11.625 17.75C10.7312 17.75 10 18.4812 10 19.375C10 20.2688 10.7312 21 11.625 21C12.5188 21 13.25 20.2688 13.25 19.375C13.25 18.4812 12.5188 17.75 11.625 17.75Z" fill="black"/>
</svg>
