<svg width="13" height="9" viewBox="0 0 13 9" fill="none" xmlns="http://www.w3.org/2000/svg">
<path d="M5.43722 1.91495C5.43722 2.4014 5.22618 2.86792 4.85054 3.21189C4.47489 3.55586 3.9654 3.7491 3.43415 3.7491C2.90291 3.7491 2.39342 3.55586 2.01777 3.21189C1.64212 2.86792 1.43108 2.4014 1.43108 1.91495C1.43108 1.42851 1.64212 0.961987 2.01777 0.618019C2.39342 0.27405 2.90291 0.0808105 3.43415 0.0808105C3.9654 0.0808105 4.47489 0.27405 4.85054 0.618019C5.22618 0.961987 5.43722 1.42851 5.43722 1.91495V1.91495ZM10.7787 1.91495C10.7787 2.15582 10.7269 2.39432 10.6263 2.61685C10.5256 2.83938 10.3781 3.04157 10.1921 3.21189C10.0061 3.3822 9.78524 3.51731 9.54221 3.60948C9.29919 3.70166 9.03872 3.7491 8.77567 3.7491C8.51262 3.7491 8.25215 3.70166 8.00913 3.60948C7.76611 3.51731 7.54529 3.3822 7.35929 3.21189C7.17328 3.04157 7.02574 2.83938 6.92508 2.61685C6.82441 2.39432 6.7726 2.15582 6.7726 1.91495C6.7726 1.42851 6.98364 0.961987 7.35929 0.618019C7.73493 0.27405 8.24442 0.0808105 8.77567 0.0808105C9.30692 0.0808105 9.81641 0.27405 10.1921 0.618019C10.5677 0.961987 10.7787 1.42851 10.7787 1.91495V1.91495ZM8.06124 8.64014C8.09196 8.44022 8.10798 8.23663 8.10798 8.02876C8.10953 7.0682 7.7566 6.13533 7.10645 5.38148C7.61395 5.11319 8.18964 4.97194 8.77565 4.97194C9.36166 4.97193 9.93735 5.11317 10.4449 5.38146C10.9524 5.64975 11.3738 6.03564 11.6668 6.50034C11.9598 6.96504 12.1141 7.49217 12.1141 8.02876V8.64014H8.06124ZM3.43415 4.97186C4.31956 4.97186 5.16871 5.29392 5.79479 5.86721C6.42087 6.44049 6.7726 7.21802 6.7726 8.02876V8.64014H0.0957031V8.02876C0.0957031 7.21802 0.447432 6.44049 1.07351 5.86721C1.69959 5.29392 2.54874 4.97186 3.43415 4.97186V4.97186Z" fill="black"/>
</svg>
