<svg width="31" height="31" viewBox="0 0 31 31" fill="none" xmlns="http://www.w3.org/2000/svg">
<path fill-rule="evenodd" clip-rule="evenodd" d="M5.0166 8.77895C5.0166 5.31577 7.82407 2.5083 11.2873 2.5083H16.3038C16.6364 2.5083 16.9554 2.64043 17.1906 2.87563L24.7154 10.4004C24.9506 10.6356 25.0827 10.9546 25.0827 11.2872V21.3203C25.0827 24.7834 22.2752 27.5909 18.812 27.5909H16.3038C15.6111 27.5909 15.0496 27.0294 15.0496 26.3368C15.0496 25.6441 15.6111 25.0826 16.3038 25.0826H18.812C20.8899 25.0826 22.5744 23.3982 22.5744 21.3203V12.5413H18.812C16.7341 12.5413 15.0496 10.8569 15.0496 8.77895V5.01656H11.2873C9.20934 5.01656 7.52486 6.70104 7.52486 8.77895V15.0496C7.52486 15.7422 6.96337 16.3037 6.27073 16.3037C5.57809 16.3037 5.0166 15.7422 5.0166 15.0496V8.77895ZM17.5579 6.79017L20.8008 10.0331H18.812C18.1194 10.0331 17.5579 9.47159 17.5579 8.77895V6.79017ZM12.7724 14.5717C13.8073 13.5367 15.4853 13.5367 16.5202 14.5717L18.0359 16.0873C19.0708 17.1223 19.0708 18.8002 18.0359 19.8351L10.6474 27.2236C10.4122 27.4588 10.0932 27.5909 9.76055 27.5909H6.27073C5.57809 27.5909 5.0166 27.0294 5.0166 26.3368V22.847C5.0166 22.5143 5.14873 22.1953 5.38393 21.9602L12.7724 14.5717ZM14.7466 16.3453C14.6912 16.2899 14.6014 16.2899 14.546 16.3453L13.0719 17.8194L14.7881 19.5356L16.2622 18.0615C16.3176 18.0061 16.3176 17.9163 16.2622 17.8609L14.7466 16.3453ZM13.0145 21.3092L11.2983 19.593L7.52486 23.3664V25.0826H9.24107L13.0145 21.3092Z" fill="black"/>
</svg>
